/* XPM */
static char *result[] = {
/* columns rows colors chars-per-pixel */
"64 64 155 2 ",
"   c #391528",
".  c #382B30",
"X  c #22333F",
"o  c #441725",
"O  c #491A27",
"+  c #521F27",
"@  c #621E3C",
"#  c #44222D",
"$  c #4A242F",
"%  c #4B2630",
"&  c #472933",
"*  c #492D37",
"=  c #4A283A",
"-  c #5B253C",
";  c #582F38",
":  c #572734",
">  c #483F3E",
",  c #5D333C",
"<  c #6F292E",
"1  c #762C2D",
"2  c #782C2D",
"3  c #7E322E",
"4  c #63213C",
"5  c #1F3441",
"6  c #223B46",
"7  c #223E49",
"8  c #253744",
"9  c #323F44",
"0  c #5C2941",
"q  c #552B42",
"w  c #5B3445",
"e  c #59314E",
"r  c #5C3350",
"t  c #6F2B45",
"y  c #6C3A4E",
"u  c #74344B",
"i  c #7F3E53",
"p  c #21424A",
"a  c #22484D",
"s  c #34444E",
"d  c #374650",
"f  c #364952",
"g  c #375254",
"h  c #276464",
"j  c #2C6565",
"k  c #2A6B69",
"l  c #316666",
"z  c #346C6A",
"x  c #356567",
"c  c #2B736C",
"v  c #2C786F",
"b  c #2D7E71",
"n  c #3E7470",
"m  c #484345",
"M  c #45595C",
"N  c #435253",
"B  c #7C4B4D",
"V  c #724F50",
"C  c #725050",
"Z  c #785554",
"A  c #80332E",
"S  c #86382F",
"D  c #823636",
"F  c #843A33",
"G  c #883B38",
"H  c #833738",
"J  c #8A4339",
"K  c #894237",
"L  c #A65636",
"P  c #A95637",
"I  c #AB5937",
"U  c #AE5B38",
"Y  c #AA5738",
"T  c #B35E37",
"R  c #B15D38",
"E  c #B66139",
"W  c #B8643B",
"Q  c #8C3F41",
"!  c #8C4042",
"~  c #824558",
"^  c #B25F41",
"/  c #B46141",
"(  c #BA6542",
")  c #BC6C44",
"_  c #BC6C4A",
"`  c #BF7044",
"'  c #BA717B",
"]  c #C67D4E",
"[  c #C37957",
"{  c #C2767A",
"}  c #C7797B",
"|  c #CB7C7D",
" . c #2F9871",
".. c #329E76",
"X. c #32A477",
"o. c #33A479",
"O. c #34AA7C",
"+. c #35B27E",
"@. c #45A77E",
"#. c #D0965E",
"$. c #C78B59",
"%. c #D59D64",
"&. c #E1AC6B",
"*. c #E4B270",
"=. c #C57B84",
"-. c #CB7D85",
";. c #48B484",
":. c #13A1C0",
">. c #26B3CF",
",. c #26BCD7",
"<. c #38C4DD",
"1. c #3ACBE6",
"2. c #CC848C",
"3. c #D3858E",
"4. c #D28386",
"5. c #C98790",
"6. c #D98E94",
"7. c #DD9B9F",
"8. c #D9AE9E",
"9. c #E4BF83",
"0. c #E5B59F",
"q. c #C9AEA3",
"w. c #D5A9A1",
"e. c #C9B4A7",
"r. c #CABBA9",
"t. c #DCBAAC",
"y. c #CAB8B2",
"u. c #E3BAAD",
"i. c #E6B6A0",
"p. c #ECBDB1",
"a. c #EAC484",
"s. c #F2CC87",
"d. c #F6D58E",
"f. c #F8D88F",
"g. c #FCDE93",
"h. c #FFE599",
"j. c #D9CABF",
"k. c #ECC1AD",
"l. c #EDC5B3",
"z. c #EFCCBC",
"x. c #F2CCBB",
"c. c #F0C6B8",
"v. c #DBCDC1",
"b. c #D7CFD3",
"n. c #D5D1D3",
"m. c #F2D1C3",
"M. c #E4D6D4",
"N. c #EAEAEB",
"B. c #FBEDEC",
"V. c #F9F0EC",
"C. c #E4F7FB",
"Z. c #E5F4F5",
"A. c #FCF2F1",
"S. c #FFF8F6",
"D. c white",
/* pixels */
"D.D.D.D.D.D.D.D.D.D.D.D.D.D.D.D.D.D.D.D.D.D.D.D.D.D.D.D.D.D.D.D.D.D.D.D.D.D.D.D.D.D.D.D.D.D.D.D.D.D.D.D.D.D.D.D.D.D.D.D.D.D.D.D.",
"D.D.D.D.D.D.D.D.D.D.D.D.D.D.D.D.D.D.D.D.D.D.D.D.D.D.D.D.D.D.D.D.D.D.D.D.D.D.D.D.D.D.D.D.D.D.D.D.D.D.D.D.D.D.D.D.D.D.D.D.D.D.D.D.",
"D.D.D.D.D.D.D.D.D.D.D.D.D.D.D.D.D.D.D.D.D.D.D.D.D.D.D.D.D.D.D.D.D.D.D.D.D.D.D.D.D.D.D.D.D.D.D.D.D.D.D.D.D.D.D.D.D.D.D.D.D.D.D.D.",
"D.D.D.D.D.D.D.D.D.D.D.D.D.D.D.D.D.D.D.D.D.D.D.D.D.D.D.D.D.D.D.D.D.D.D.D.D.D.D.D.D.D.D.D.D.D.D.D.D.D.D.D.D.D.D.D.D.D.D.D.D.D.D.D.",
"D.D.D.D.D.D.D.D.D.D.D.D.D.D.D.D.D.D.D.D.D.D.D.D.D.D.D.D.D.D.D.D.D.D.D.D.D.D.D.D.D.D.D.D.D.D.D.D.D.D.D.D.D.D.D.D.D.D.D.D.D.D.D.D.",
"D.D.D.D.D.D.D.D.D.D.D.D.D.D.D.D.D.D.D.D.D.D.D.D.D.D.D.D.D.D.D.D.D.D.D.D.D.D.D.D.D.D.D.D.D.D.D.D.D.D.D.D.D.D.D.D.D.D.D.D.D.D.D.D.",
"D.D.D.D.D.D.D.D.D.D.D.D.D.D.D.D.D.D.D.D.D.D.D.D.D.D.D.D.D.D.D.D.D.D.D.D.D.D.D.D.D.D.D.D.D.D.D.D.D.D.D.D.D.D.D.D.D.D.D.D.D.D.D.D.",
"D.D.D.D.D.D.D.D.D.D.D.D.D.D.D.D.D.D.D.D.D.D.D.D.D.D.D.D.D.D.D.D.D.D.D.D.D.D.D.D.D.D.D.D.D.D.D.D.D.D.D.D.D.D.D.D.D.D.D.D.D.D.D.D.",
"D.D.D.D.D.D.D.D.D.D.D.D.D.D.D.D.D.D.D.D.D.D.D.D.D.D.D.D.D.D.D.D.D.D.D.D.D.D.D.D.D.D.D.D.D.D.D.D.D.D.D.D.D.D.D.D.D.D.D.D.D.D.D.D.",
"D.D.D.D.D.D.D.D.D.D.D.D.D.D.D.D.D.D.D.D.D.D.D.D.D.D.D.D.D.D.D.D.D.D.D.D.D.D.D.D.D.D.D.D.D.D.D.D.D.D.D.D.D.D.D.D.D.D.D.D.D.D.D.D.",
"D.D.D.D.D.D.D.D.D.D.D.D.D.D.D.D.D.D.D.D.D.D.D.D.D.D.D.D.D.D.D.D.D.D.D.D.D.D.D.D.D.D.D.D.D.D.D.D.D.D.D.D.D.D.D.D.D.D.D.D.D.D.D.D.",
"D.D.D.D.D.D.D.D.D.D.D.D.D.D.D.D.D.D.D.D.D.D.D.D.D.D.D.D.D.D.D.D.D.D.D.D.D.D.D.D.D.D.D.D.D.D.D.D.D.D.D.D.D.D.D.D.D.D.D.D.D.D.D.D.",
"D.D.D.D.D.D.D.D.D.D.D.D.D.D.D.D.D.D.D.D.D.D.D.D.D.D.D.D.D.D.D.D.D.D.D.D.D.D.D.D.D.D.D.D.D.D.D.D.D.D.D.D.D.D.D.D.D.D.D.D.D.D.D.D.",
"D.D.D.D.D.D.D.D.D.D.D.D.D.D.D.D.D.D.D.D.D.D.D.D.D.D.D.D.D.D.D.D.D.D.D.D.D.D.D.D.D.D.D.D.D.D.D.D.D.D.D.D.D.D.D.D.D.D.D.D.D.D.D.D.",
"D.D.D.D.D.D.D.D.D.D.D.D.D.D.D.D.D.D.D.D.D.D.D.D.D.D.D.D.D.D.D.D.D.D.D.D.D.D.D.D.D.D.D.D.D.D.D.D.D.D.D.D.D.D.D.D.D.D.D.D.D.D.D.D.",
"D.D.D.D.D.D.D.D.D.D.D.D.D.D.D.D.D.D.D.D.D.D.D.D.D.D.D.D.D.D.D.D.D.D.D.D.D.D.D.D.D.D.D.D.D.D.D.D.D.D.D.D.D.D.D.D.D.D.D.D.D.D.D.D.",
"D.D.D.D.D.D.D.D.D.D.D.D.D.D.D.D.D.D.D.D.D.D.D.D.< 1 1 1 1 1 2 2 2 2 2 2 2 2 2 2 2 2 1 3 D.D.D.D.D.D.D.D.D.D.D.D.D.D.D.D.D.D.D.D.",
"D.D.D.D.D.D.D.D.D.D.D.D.D.D.D.D.D.D.D.D.D.D.D.D.K K K K H H F F F F F F F F F A F F F F D.D.D.D.D.D.D.D.D.D.D.D.D.D.D.D.D.D.D.D.",
"D.D.D.D.D.D.D.D.D.D.D.D.D.D.D.D.D.D.D.D.2 2 1 K a.d.s.a.%.#.#.#.#.#.#.#.#.#.#.#.#.#.#.$.F 1 D.D.D.D.D.D.D.D.D.D.D.D.D.D.D.D.D.D.",
"D.D.D.D.D.D.D.D.D.D.D.D.D.D.D.D.D.D.D.D.A A A J a.f.h.g.*.&.&.&.&.&.&.&.&.&.&.&.&.&.&.%.K 3 D.D.D.D.D.D.D.D.D.D.D.D.D.D.D.D.D.D.",
"D.D.D.D.D.D.D.D.D.D.D.D.D.D.D.D.D.D.2 A Y R U R ) ] f.h.h.g.g.g.g.g.g.g.g.g.g.h.g.h.g.s.W Y A 1 D.D.D.D.D.D.D.D.D.D.D.D.D.D.D.D.",
"D.D.D.D.D.D.D.D.D.D.D.D.D.D.D.D.D.D.2 A U E E E E ) a.d.d.d.f.d.d.d.f.d.d.d.d.d.d.d.d.s.` U A 3 D.D.D.D.D.D.D.D.D.D.D.D.D.D.D.D.",
"D.D.D.D.D.D.D.D.D.D.D.D.D.D.D.D.2 2 2 A U E E E E R J J W ` ` ` ` ` ) ` ` ` ` ` ` ` ] W W U 3 2 D.D.D.D.D.D.D.D.D.D.D.D.D.D.D.D.",
"D.D.D.D.D.D.D.D.D.D.D.D.D.D.D.D.2 2 2 A Y R E E R I G G / W Y I L Y ) ) E E E T E T I L L L 3 2 D.D.D.D.D.D.D.D.D.D.D.D.D.D.D.D.",
"D.D.D.D.D.D.D.D.D.D.D.D.D.D.D.D.D.D.D.D.3 F T R F G { -.4.' % o o ; 8.i.) T E E E Y + o o O 1 2 D.D.D.D.D.D.D.D.D.D.D.D.D.D.D.D.",
"D.D.D.D.D.D.D.D.D.D.D.D.D.D.D.D.D.D.D.D.3 S R / A H -.3.=.' w =   % t.k.[ ) ( ] W Y w =     < 2 D.D.D.D.D.D.D.D.D.D.D.D.D.D.D.D.",
"D.D.D.D.D.D.D.D.D.D.D.D.D.D.D.D.D.D.3 3 Y ^ | } D D -.=.- w b.n.m > t.x.k.k.p.0.( _ M.n.m . 4 4 D.D.D.D.D.D.D.D.D.D.D.D.D.D.D.D.",
"D.D.D.D.D.D.D.D.D.D.D.D.D.D.D.D.D.D.2 3 T ( | } G Q -.=.- w N.N.M N t.x.x.x.x.p.[ $.V.N.M s - 4 D.D.D.D.D.D.D.D.D.D.D.D.D.D.D.D.",
"D.D.D.D.D.D.D.D.D.D.D.D.D.D.D.D.2 2 2 A R W ( _ -.-.3.3.=.5.A.C.,.>.j.x.x.x.x.l.k.l.S.C.,.:.e 4 D.D.D.D.D.D.D.D.D.D.D.D.D.D.D.D.",
"D.D.D.D.D.D.D.D.D.D.D.D.D.D.D.D.2 2 2 A Y R U / } -.3.3.6.7.B.Z.1.<.j.x.x.x.x.x.x.m.A.Z.1.>.r 4 D.D.D.D.D.D.D.D.D.D.D.D.D.D.D.D.",
"D.D.D.D.D.D.D.D.D.D.D.D.D.D.D.D.D.D.D.D.3 A A A D Q -.6.p.c.m.m.j.j.z.x.x.x.x.x.z.x.m.m.v.y.u @ D.D.D.D.D.D.D.D.D.D.D.D.D.D.D.D.",
"D.D.D.D.D.D.D.D.D.D.D.D.D.D.D.D.D.D.D.D.2 2 2 2 1 D { 2.p.x.x.x.x.x.z.x.x.x.x.x.x.x.x.c.p.w.u 4 D.D.D.D.D.D.D.D.D.D.D.D.D.D.D.D.",
"D.D.D.D.D.D.D.D.D.D.D.D.D.D.D.D.D.D.D.D.D.D.D.D.D.D.t i u.x.x.x.x.x.x.x.x.x.x.x.x.x.m.p.~ u D.D.D.D.D.D.D.D.D.D.D.D.D.D.D.D.D.D.",
"D.D.D.D.D.D.D.D.D.D.D.D.D.D.D.D.D.D.D.D.D.D.D.D.D.D.q u w.u.u.u.u.u.u.u.u.u.u.u.u.u.u.w.u @ D.D.D.D.D.D.D.D.D.D.D.D.D.D.D.D.D.D.",
"D.D.D.D.D.D.D.D.D.D.D.D.D.D.D.D.D.D.D.D.D.D.D.D.5 6 x x y u u u u u u u u u u u u u u u D.D.D.D.D.D.D.D.D.D.D.D.D.D.D.D.D.D.D.D.",
"D.D.D.D.D.D.D.D.D.D.D.D.D.D.D.D.D.D.D.D.D.D.D.D.6 p k l q - 0 0 - 0 0 0 0 0 0 0 0 0 0 0 D.D.D.D.D.D.D.D.D.D.D.D.D.D.D.D.D.D.D.D.",
"D.D.D.D.D.D.D.D.D.D.D.D.D.D.D.D.D.D.D.D.D.D.5 7 h k c k 8 8 x l l l l l z l l l l l l j 6 5 D.D.D.D.D.D.D.D.D.D.D.D.D.D.D.D.D.D.",
"D.D.D.D.D.D.D.D.D.D.D.D.D.D.D.D.D.D.D.D.D.D.5 7 k v k h 7 p c v v v v v v v v v v v k h p 6 D.D.D.D.D.D.D.D.D.D.D.D.D.D.D.D.D.D.",
"D.D.D.D.D.D.D.D.D.D.D.D.D.D.D.D.D.D.D.D.D.D.8 p ....a 7 j c o.O.O.O.O.O.O.O.O.O.O...a 7 h h 7 5 D.D.D.D.D.D.D.D.D.D.D.D.D.D.D.D.",
"D.D.D.D.D.D.D.D.D.D.D.D.D.D.D.D.D.D.D.D.D.D.5 p o.o.g f h c o.O.+.+.+.+.+.+.+.+.+.X.p 6 n n 7 5 D.D.D.D.D.D.D.D.D.D.D.D.D.D.D.D.",
"D.D.D.D.D.D.D.D.D.D.D.D.D.D.D.D.D.D.D.D.D.D.5 p X.;.r.q.d p k b O.+.+.+.+.+.+.+.+.X.p s e.e.s 5 D.D.D.D.D.D.D.D.D.D.D.D.D.D.D.D.",
"D.D.D.D.D.D.D.D.D.D.D.D.D.D.D.D.D.D.D.D.D.D.5 p  .@.r.q.f p k v o.O.O.O.O.O.O.O.O.X.p s q.e.s 5 D.D.D.D.D.D.D.D.D.D.D.D.D.D.D.D.",
"D.D.D.D.D.D.D.D.D.D.D.D.D.D.D.D.D.D.D.D.D.D.D.D.p p s f h k c c v v v v v v v v v c 6 8 s d D.D.D.D.D.D.D.D.D.D.D.D.D.D.D.D.D.D.",
"D.D.D.D.D.D.D.D.D.D.D.D.D.D.D.D.D.D.D.D.D.D.D.D.5 8 X 6 l z z z z z l l z z z z z l 8 X 5 5 D.D.D.D.D.D.D.D.D.D.D.D.D.D.D.D.D.D.",
"D.D.D.D.D.D.D.D.D.D.D.D.D.D.D.D.D.D.D.D.D.D.D.D.D.D.# & C Z Z Z Z C * * C Z Z Z Z V & # D.D.D.D.D.D.D.D.D.D.D.D.D.D.D.D.D.D.D.D.",
"D.D.D.D.D.D.D.D.D.D.D.D.D.D.D.D.D.D.D.D.D.D.D.D.D.D.# & B B ~ B B B % % B B B B B B $ # D.D.D.D.D.D.D.D.D.D.D.D.D.D.D.D.D.D.D.D.",
"D.D.D.D.D.D.D.D.D.D.D.D.D.D.D.D.D.D.D.D.D.D.D.D.D.D.# $ , , , , , , D.D., , , , , , $ # D.D.D.D.D.D.D.D.D.D.D.D.D.D.D.D.D.D.D.D.",
"D.D.D.D.D.D.D.D.D.D.D.D.D.D.D.D.D.D.D.D.D.D.D.D.D.D.# # ; , , , , , D.D., , , , ; ; # # D.D.D.D.D.D.D.D.D.D.D.D.D.D.D.D.D.D.D.D.",
"D.D.D.D.D.D.D.D.D.D.D.D.D.D.D.D.D.D.D.D.D.D.D.D.D.D.D.D.D.D.D.D.D.D.D.D.D.D.D.D.D.D.D.D.D.D.D.D.D.D.D.D.D.D.D.D.D.D.D.D.D.D.D.D.",
"D.D.D.D.D.D.D.D.D.D.D.D.D.D.D.D.D.D.D.D.D.D.D.D.D.D.D.D.D.D.D.D.D.D.D.D.D.D.D.D.D.D.D.D.D.D.D.D.D.D.D.D.D.D.D.D.D.D.D.D.D.D.D.D.",
"D.D.D.D.D.D.D.D.D.D.D.D.D.D.D.D.D.D.D.D.D.D.D.D.D.D.D.D.D.D.D.D.D.D.D.D.D.D.D.D.D.D.D.D.D.D.D.D.D.D.D.D.D.D.D.D.D.D.D.D.D.D.D.D.",
"D.D.D.D.D.D.D.D.D.D.D.D.D.D.D.D.D.D.D.D.D.D.D.D.D.D.D.D.D.D.D.D.D.D.D.D.D.D.D.D.D.D.D.D.D.D.D.D.D.D.D.D.D.D.D.D.D.D.D.D.D.D.D.D.",
"D.D.D.D.D.D.D.D.D.D.D.D.D.D.D.D.D.D.D.D.D.D.D.D.D.D.D.D.D.D.D.D.D.D.D.D.D.D.D.D.D.D.D.D.D.D.D.D.D.D.D.D.D.D.D.D.D.D.D.D.D.D.D.D.",
"D.D.D.D.D.D.D.D.D.D.D.D.D.D.D.D.D.D.D.D.D.D.D.D.D.D.D.D.D.D.D.D.D.D.D.D.D.D.D.D.D.D.D.D.D.D.D.D.D.D.D.D.D.D.D.D.D.D.D.D.D.D.D.D.",
"D.D.D.D.D.D.D.D.D.D.D.D.D.D.D.D.D.D.D.D.D.D.D.D.D.D.D.D.D.D.D.D.D.D.D.D.D.D.D.D.D.D.D.D.D.D.D.D.D.D.D.D.D.D.D.D.D.D.D.D.D.D.D.D.",
"D.D.D.D.D.D.D.D.D.D.D.D.D.D.D.D.D.D.D.D.D.D.D.D.D.D.D.D.D.D.D.D.D.D.D.D.D.D.D.D.D.D.D.D.D.D.D.D.D.D.D.D.D.D.D.D.D.D.D.D.D.D.D.D.",
"D.D.D.D.D.D.D.D.D.D.D.D.D.D.D.D.D.D.D.D.D.D.D.D.D.D.D.D.D.D.D.D.D.D.D.D.D.D.D.D.D.D.D.D.D.D.D.D.D.D.D.D.D.D.D.D.D.D.D.D.D.D.D.D.",
"D.D.D.D.D.D.D.D.D.D.D.D.D.D.D.D.D.D.D.D.D.D.D.D.D.D.D.D.D.D.D.D.D.D.D.D.D.D.D.D.D.D.D.D.D.D.D.D.D.D.D.D.D.D.D.D.D.D.D.D.D.D.D.D.",
"D.D.D.D.D.D.D.D.D.D.D.D.D.D.D.D.D.D.D.D.D.D.D.D.D.D.D.D.D.D.D.D.D.D.D.D.D.D.D.D.D.D.D.D.D.D.D.D.D.D.D.D.D.D.D.D.D.D.D.D.D.D.D.D.",
"D.D.D.D.D.D.D.D.D.D.D.D.D.D.D.D.D.D.D.D.D.D.D.D.D.D.D.D.D.D.D.D.D.D.D.D.D.D.D.D.D.D.D.D.D.D.D.D.D.D.D.D.D.D.D.D.D.D.D.D.D.D.D.D.",
"D.D.D.D.D.D.D.D.D.D.D.D.D.D.D.D.D.D.D.D.D.D.D.D.D.D.D.D.D.D.D.D.D.D.D.D.D.D.D.D.D.D.D.D.D.D.D.D.D.D.D.D.D.D.D.D.D.D.D.D.D.D.D.D.",
"D.D.D.D.D.D.D.D.D.D.D.D.D.D.D.D.D.D.D.D.D.D.D.D.D.D.D.D.D.D.D.D.D.D.D.D.D.D.D.D.D.D.D.D.D.D.D.D.D.D.D.D.D.D.D.D.D.D.D.D.D.D.D.D.",
"D.D.D.D.D.D.D.D.D.D.D.D.D.D.D.D.D.D.D.D.D.D.D.D.D.D.D.D.D.D.D.D.D.D.D.D.D.D.D.D.D.D.D.D.D.D.D.D.D.D.D.D.D.D.D.D.D.D.D.D.D.D.D.D.",
"D.D.D.D.D.D.D.D.D.D.D.D.D.D.D.D.D.D.D.D.D.D.D.D.D.D.D.D.D.D.D.D.D.D.D.D.D.D.D.D.D.D.D.D.D.D.D.D.D.D.D.D.D.D.D.D.D.D.D.D.D.D.D.D."
};
