/* XPM */
static char *result[] = {
/* columns rows colors chars-per-pixel */
"64 64 160 2 ",
"   c #391528",
".  c #3C2931",
"X  c #22323E",
"o  c #441725",
"O  c #491A27",
"+  c #521F27",
"@  c #621E3C",
"#  c #45222D",
"$  c #4A242F",
"%  c #4A2935",
"&  c #4A283A",
"*  c #4C2630",
"=  c #5B253C",
"-  c #582F38",
";  c #572734",
":  c #493639",
">  c #483F3E",
",  c #5D333C",
"<  c #6F292E",
"1  c #762C2D",
"2  c #782C2D",
"3  c #7E322E",
"4  c #63213C",
"5  c #1F3442",
"6  c #223C47",
"7  c #223E49",
"8  c #293A46",
"9  c #323F44",
"0  c #5C2941",
"q  c #552B42",
"w  c #5B3445",
"e  c #59314E",
"r  c #5C3350",
"t  c #6F2B45",
"y  c #6C3A4E",
"u  c #74344B",
"i  c #7F3E53",
"p  c #1F4047",
"a  c #21424A",
"s  c #22484D",
"d  c #35454F",
"f  c #3A434D",
"g  c #374650",
"h  c #364A52",
"j  c #375154",
"k  c #276464",
"l  c #2B6464",
"z  c #2A6B69",
"x  c #316667",
"c  c #336667",
"v  c #2B726C",
"b  c #2C786F",
"n  c #36736C",
"m  c #2C7F71",
"M  c #3E7470",
"N  c #484345",
"B  c #45595C",
"V  c #435253",
"C  c #764A4C",
"Z  c #7C4C4D",
"A  c #774F50",
"S  c #745752",
"D  c #785554",
"F  c #7A5C56",
"G  c #80332E",
"H  c #86382F",
"J  c #823636",
"K  c #843A33",
"L  c #883B38",
"P  c #833738",
"I  c #8A4339",
"U  c #894237",
"Y  c #A65636",
"T  c #A95637",
"R  c #AB5937",
"E  c #AE5B38",
"W  c #AA5738",
"Q  c #B35E37",
"!  c #B15D38",
"~  c #B66139",
"^  c #B8643B",
"/  c #8C3F41",
"(  c #8C4042",
")  c #824558",
"_  c #B25F41",
"`  c #B46141",
"'  c #BA6542",
"]  c #BC6C44",
"[  c #BC6C4A",
"{  c #BF7044",
"}  c #BA717B",
"|  c #C67D4E",
" . c #C37957",
".. c #C2767A",
"X. c #C7797B",
"o. c #CB7C7D",
"O. c #339D76",
"+. c #3C9C75",
"@. c #319771",
"#. c #32A477",
"$. c #38A275",
"%. c #3EA679",
"&. c #34AA7C",
"*. c #33A37A",
"=. c #35B27E",
"-. c #D0965E",
";. c #C78B59",
":. c #D59D64",
">. c #E1AC6B",
",. c #E4B270",
"<. c #C57B84",
"1. c #CB7D85",
"2. c #13A1C0",
"3. c #26B3CF",
"4. c #26BCD7",
"5. c #38C4DD",
"6. c #3ACBE6",
"7. c #CC848C",
"8. c #D3858E",
"9. c #D28386",
"0. c #C98790",
"q. c #D98E94",
"w. c #DD9B9F",
"e. c #D9AE9E",
"r. c #E4BF83",
"t. c #E5B59F",
"y. c #C7AFA3",
"u. c #CBADA2",
"i. c #D5A9A1",
"p. c #C9B4A7",
"a. c #DCBAAC",
"s. c #CAB8B2",
"d. c #E3BAAD",
"f. c #E6B6A0",
"g. c #ECBDB1",
"h. c #EAC484",
"j. c #F2CC87",
"k. c #F6D58E",
"l. c #F8D88F",
"z. c #FCDE93",
"x. c #FFE599",
"c. c #D9CABF",
"v. c #ECC1AD",
"b. c #EDC5B3",
"n. c #EFCCBC",
"m. c #F2CCBB",
"M. c #F0C6B8",
"N. c #DBCDC1",
"B. c #D7CFD3",
"V. c #D5D1D3",
"C. c #F2D1C3",
"Z. c #E4D6D4",
"A. c #EAEAEB",
"S. c #FBEDEC",
"D. c #F9F0EC",
"F. c #E5F4F5",
"G. c #E4F7FB",
"H. c #FCF2F1",
"J. c #FFF8F6",
"K. c white",
/* pixels */
"K.K.K.K.K.K.K.K.K.K.K.K.K.K.K.K.K.K.K.K.K.K.K.K.K.K.K.K.K.K.K.K.K.K.K.K.K.K.K.K.K.K.K.K.K.K.K.K.K.K.K.K.K.K.K.K.K.K.K.K.K.K.K.K.",
"K.K.K.K.K.K.K.K.K.K.K.K.K.K.K.K.K.K.K.K.K.K.K.K.K.K.K.K.K.K.K.K.K.K.K.K.K.K.K.K.K.K.K.K.K.K.K.K.K.K.K.K.K.K.K.K.K.K.K.K.K.K.K.K.",
"K.K.K.K.K.K.K.K.K.K.K.K.K.K.K.K.K.K.K.K.K.K.K.K.K.K.K.K.K.K.K.K.K.K.K.K.K.K.K.K.K.K.K.K.K.K.K.K.K.K.K.K.K.K.K.K.K.K.K.K.K.K.K.K.",
"K.K.K.K.K.K.K.K.K.K.K.K.K.K.K.K.K.K.K.K.K.K.K.K.K.K.K.K.K.K.K.K.K.K.K.K.K.K.K.K.K.K.K.K.K.K.K.K.K.K.K.K.K.K.K.K.K.K.K.K.K.K.K.K.",
"K.K.K.K.K.K.K.K.K.K.K.K.K.K.K.K.K.K.K.K.K.K.K.K.K.K.K.K.K.K.K.K.K.K.K.K.K.K.K.K.K.K.K.K.K.K.K.K.K.K.K.K.K.K.K.K.K.K.K.K.K.K.K.K.",
"K.K.K.K.K.K.K.K.K.K.K.K.K.K.K.K.K.K.K.K.K.K.K.K.K.K.K.K.K.K.K.K.K.K.K.K.K.K.K.K.K.K.K.K.K.K.K.K.K.K.K.K.K.K.K.K.K.K.K.K.K.K.K.K.",
"K.K.K.K.K.K.K.K.K.K.K.K.K.K.K.K.K.K.K.K.K.K.K.K.K.K.K.K.K.K.K.K.K.K.K.K.K.K.K.K.K.K.K.K.K.K.K.K.K.K.K.K.K.K.K.K.K.K.K.K.K.K.K.K.",
"K.K.K.K.K.K.K.K.K.K.K.K.K.K.K.K.K.K.K.K.K.K.K.K.K.K.K.K.K.K.K.K.K.K.K.K.K.K.K.K.K.K.K.K.K.K.K.K.K.K.K.K.K.K.K.K.K.K.K.K.K.K.K.K.",
"K.K.K.K.K.K.K.K.K.K.K.K.K.K.K.K.K.K.K.K.K.K.K.K.K.K.K.K.K.K.K.K.K.K.K.K.K.K.K.K.K.K.K.K.K.K.K.K.K.K.K.K.K.K.K.K.K.K.K.K.K.K.K.K.",
"K.K.K.K.K.K.K.K.K.K.K.K.K.K.K.K.K.K.K.K.K.K.K.K.K.K.K.K.K.K.K.K.K.K.K.K.K.K.K.K.K.K.K.K.K.K.K.K.K.K.K.K.K.K.K.K.K.K.K.K.K.K.K.K.",
"K.K.K.K.K.K.K.K.K.K.K.K.K.K.K.K.K.K.K.K.K.K.K.K.K.K.K.K.K.K.K.K.K.K.K.K.K.K.K.K.K.K.K.K.K.K.K.K.K.K.K.K.K.K.K.K.K.K.K.K.K.K.K.K.",
"K.K.K.K.K.K.K.K.K.K.K.K.K.K.K.K.K.K.K.K.K.K.K.K.K.K.K.K.K.K.K.K.K.K.K.K.K.K.K.K.K.K.K.K.K.K.K.K.K.K.K.K.K.K.K.K.K.K.K.K.K.K.K.K.",
"K.K.K.K.K.K.K.K.K.K.K.K.K.K.K.K.K.K.K.K.K.K.K.K.K.K.K.K.K.K.K.K.K.K.K.K.K.K.K.K.K.K.K.K.K.K.K.K.K.K.K.K.K.K.K.K.K.K.K.K.K.K.K.K.",
"K.K.K.K.K.K.K.K.K.K.K.K.K.K.K.K.K.K.K.K.K.K.K.K.K.K.K.K.K.K.K.K.K.K.K.K.K.K.K.K.K.K.K.K.K.K.K.K.K.K.K.K.K.K.K.K.K.K.K.K.K.K.K.K.",
"K.K.K.K.K.K.K.K.K.K.K.K.K.K.K.K.K.K.K.K.K.K.K.K.K.K.K.K.K.K.K.K.K.K.K.K.K.K.K.K.K.K.K.K.K.K.K.K.K.K.K.K.K.K.K.K.K.K.K.K.K.K.K.K.",
"K.K.K.K.K.K.K.K.K.K.K.K.K.K.K.K.K.K.K.K.K.K.K.K.K.K.K.K.K.K.K.K.K.K.K.K.K.K.K.K.K.K.K.K.K.K.K.K.K.K.K.K.K.K.K.K.K.K.K.K.K.K.K.K.",
"K.K.K.K.K.K.K.K.K.K.K.K.K.K.K.K.K.K.K.K.K.K.K.K.K.K.K.K.K.K.K.K.K.K.K.K.K.K.K.K.K.K.K.K.K.K.K.K.K.K.K.K.K.K.K.K.K.K.K.K.K.K.K.K.",
"K.K.K.K.K.K.K.K.K.K.K.K.K.K.K.K.K.K.K.K.K.K.K.K.K.K.K.K.K.K.K.K.K.K.K.K.K.K.K.K.K.K.K.K.K.K.K.K.K.K.K.K.K.K.K.K.K.K.K.K.K.K.K.K.",
"K.K.K.K.K.K.K.K.K.K.K.K.K.K.K.K.K.K.K.K.K.K.K.K.< 1 1 1 2 2 2 2 2 2 2 2 2 2 2 2 2 2 2 2 K.K.K.K.K.K.K.K.K.K.K.K.K.K.K.K.K.K.K.K.",
"K.K.K.K.K.K.K.K.K.K.K.K.K.K.K.K.K.K.K.K.K.K.K.K.I I I I P K K K K K K K K K K K K K K K K.K.K.K.K.K.K.K.K.K.K.K.K.K.K.K.K.K.K.K.",
"K.K.K.K.K.K.K.K.K.K.K.K.K.K.K.K.K.K.K.K.2 2 1 U ,.k.k.h.:.-.-.-.-.-.-.-.-.-.-.-.-.-.-.;.H 1 K.K.K.K.K.K.K.K.K.K.K.K.K.K.K.K.K.K.",
"K.K.K.K.K.K.K.K.K.K.K.K.K.K.K.K.K.K.K.K.G G G I h.l.x.z.,.>.>.>.>.>.>.>.>.>.>.>.>.>.>.:.U 3 K.K.K.K.K.K.K.K.K.K.K.K.K.K.K.K.K.K.",
"K.K.K.K.K.K.K.K.K.K.K.K.K.K.K.K.K.K.2 G T R E ! ^ ;.k.x.z.z.z.z.z.z.z.z.z.z.z.z.z.z.x.j.] Y G 2 K.K.K.K.K.K.K.K.K.K.K.K.K.K.K.K.",
"K.K.K.K.K.K.K.K.K.K.K.K.K.K.K.K.K.K.2 G R ^ ^ ^ Q ] h.k.k.l.l.l.l.k.k.k.k.k.l.k.l.k.l.j.{ E G 2 K.K.K.K.K.K.K.K.K.K.K.K.K.K.K.K.",
"K.K.K.K.K.K.K.K.K.K.K.K.K.K.K.K.2 2 2 G R Q ^ Q ^ ! I I ] ] | ^ | ^ ] ] | ] | ^ { { { { ^ E J 1 K.K.K.K.K.K.K.K.K.K.K.K.K.K.K.K.",
"K.K.K.K.K.K.K.K.K.K.K.K.K.K.K.K.2 2 2 G T ! Q ^ ! W L L _ ' Y Y Y R ] ] Q Q ~ Q ~ ~ Y Y Y Y 3 2 K.K.K.K.K.K.K.K.K.K.K.K.K.K.K.K.",
"K.K.K.K.K.K.K.K.K.K.K.K.K.K.K.K.K.K.K.K.3 H ! Q H L ..1.1...; o o - e.f.] Q ~ Q ^ W + o o + 1 2 K.K.K.K.K.K.K.K.K.K.K.K.K.K.K.K.",
"K.K.K.K.K.K.K.K.K.K.K.K.K.K.K.K.K.K.K.K.J H _ ! G L 1.8.<.} w &   % a.v. .] ' | ^ W - &     < < K.K.K.K.K.K.K.K.K.K.K.K.K.K.K.K.",
"K.K.K.K.K.K.K.K.K.K.K.K.K.K.K.K.K.K.2 G T ` o.o.J J 1.<.= w B.V.> > a.m.g.g.v.t.' [ Z.V.N . 4 4 K.K.K.K.K.K.K.K.K.K.K.K.K.K.K.K.",
"K.K.K.K.K.K.K.K.K.K.K.K.K.K.K.K.K.K.2 G ! ' o.<.L / 1.<.; w A.A.B V a.m.m.m.m.v. .;.D.A.B 9 0 4 K.K.K.K.K.K.K.K.K.K.K.K.K.K.K.K.",
"K.K.K.K.K.K.K.K.K.K.K.K.K.K.K.K.2 2 2 G ! ^ ' [ 1.1.8.8.<.0.S.G.4.3.c.m.m.m.m.m.v.M.J.G.4.2.e 4 K.K.K.K.K.K.K.K.K.K.K.K.K.K.K.K.",
"K.K.K.K.K.K.K.K.K.K.K.K.K.K.K.K.2 3 2 G T R ! ! X.1.8.8.q.w.S.F.6.5.c.m.m.m.m.m.m.C.H.F.6.3.r 4 K.K.K.K.K.K.K.K.K.K.K.K.K.K.K.K.",
"K.K.K.K.K.K.K.K.K.K.K.K.K.K.K.K.K.K.K.K.J 3 3 J P / <.q.g.M.C.C.c.c.n.m.m.m.m.m.m.m.C.C.N.s.u 4 K.K.K.K.K.K.K.K.K.K.K.K.K.K.K.K.",
"K.K.K.K.K.K.K.K.K.K.K.K.K.K.K.K.K.K.K.K.2 2 2 2 2 P } 0.M.m.M.m.m.m.m.m.m.m.M.m.m.m.m.m.d.i.u @ K.K.K.K.K.K.K.K.K.K.K.K.K.K.K.K.",
"K.K.K.K.K.K.K.K.K.K.K.K.K.K.K.K.K.K.K.K.K.K.K.K.K.K.t / d.C.C.M.m.m.m.m.m.m.m.m.m.m.m.d.) u K.K.K.K.K.K.K.K.K.K.K.K.K.K.K.K.K.K.",
"K.K.K.K.K.K.K.K.K.K.K.K.K.K.K.K.K.K.K.K.K.K.K.K.K.K.0 y i.d.d.d.d.d.d.d.d.d.d.d.d.d.d.i.u @ K.K.K.K.K.K.K.K.K.K.K.K.K.K.K.K.K.K.",
"K.K.K.K.K.K.K.K.K.K.K.K.K.K.K.K.K.K.K.K.K.K.K.K.6 6 l c y u u u u u u u u u u u u u u u K.K.K.K.K.K.K.K.K.K.K.K.K.K.K.K.K.K.K.K.",
"K.K.K.K.K.K.K.K.K.K.K.K.K.K.K.K.K.K.K.K.K.K.K.K.6 7 z c q = 0 0 0 0 0 0 0 0 0 0 0 0 0 0 K.K.K.K.K.K.K.K.K.K.K.K.K.K.K.K.K.K.K.K.",
"K.K.K.K.K.K.K.K.K.K.K.K.K.K.K.K.K.K.K.K.K.K.5 7 l z v x 8 8 l c x x x x x x x x c c c l 6 5 K.K.K.K.K.K.K.K.K.K.K.K.K.K.K.K.K.K.",
"K.K.K.K.K.K.K.K.K.K.K.K.K.K.K.K.K.K.K.K.K.K.5 5 z b z k a a z b b m b b b b b b b b z k a 6 K.K.K.K.K.K.K.K.K.K.K.K.K.K.K.K.K.K.",
"K.K.K.K.K.K.K.K.K.K.K.K.K.K.K.K.K.K.K.K.K.K.5 a O.#.s a k v *.&.&.&.&.&.&.&.&.&.&.#.s a k k 6 5 K.K.K.K.K.K.K.K.K.K.K.K.K.K.K.K.",
"K.K.K.K.K.K.K.K.K.K.K.K.K.K.K.K.K.K.K.K.K.K.5 a @.@.h h l v O.*.=.=.=.=.=.=.=.=.=.#.s X M M 6 5 K.K.K.K.K.K.K.K.K.K.K.K.K.K.K.K.",
"K.K.K.K.K.K.K.K.K.K.K.K.K.K.K.K.K.K.K.K.K.K.6 5 p j y.y.h 5 v @.&.=.=.=.=.=.=.=.=.#.a d p.p.h 5 K.K.K.K.K.K.K.K.K.K.K.K.K.K.K.K.",
"K.K.K.K.K.K.K.K.K.K.K.K.K.K.K.K.K.K.K.K.K.K.5 5 5 f u.p.V 8 x n +.%.$.$.%.%.%.%.%.+.p f y.p.d 5 K.K.K.K.K.K.K.K.K.K.K.K.K.K.K.K.",
"K.K.K.K.K.K.K.K.K.K.K.K.K.K.K.K.K.K.K.K.K.K.K.K.K.K., , C D D D F S : : S F F F F S * . f g K.K.K.K.K.K.K.K.K.K.K.K.K.K.K.K.K.K.",
"K.K.K.K.K.K.K.K.K.K.K.K.K.K.K.K.K.K.K.K.K.K.K.K.K.K.# $ C Z ) Z ) C * * Z Z ) Z ( C * . X 5 K.K.K.K.K.K.K.K.K.K.K.K.K.K.K.K.K.K.",
"K.K.K.K.K.K.K.K.K.K.K.K.K.K.K.K.K.K.K.K.K.K.K.K.K.K.# $ , , , , , , K.K., , , , , , # # K.K.K.K.K.K.K.K.K.K.K.K.K.K.K.K.K.K.K.K.",
"K.K.K.K.K.K.K.K.K.K.K.K.K.K.K.K.K.K.K.K.K.K.K.K.K.K.# # - , , , , , K.K., , , , , - # # K.K.K.K.K.K.K.K.K.K.K.K.K.K.K.K.K.K.K.K.",
"K.K.K.K.K.K.K.K.K.K.K.K.K.K.K.K.K.K.K.K.K.K.K.K.K.K.K.K.K.K.K.K.K.K.K.K.K.K.K.K.K.K.K.K.K.K.K.K.K.K.K.K.K.K.K.K.K.K.K.K.K.K.K.K.",
"K.K.K.K.K.K.K.K.K.K.K.K.K.K.K.K.K.K.K.K.K.K.K.K.K.K.K.K.K.K.K.K.K.K.K.K.K.K.K.K.K.K.K.K.K.K.K.K.K.K.K.K.K.K.K.K.K.K.K.K.K.K.K.K.",
"K.K.K.K.K.K.K.K.K.K.K.K.K.K.K.K.K.K.K.K.K.K.K.K.K.K.K.K.K.K.K.K.K.K.K.K.K.K.K.K.K.K.K.K.K.K.K.K.K.K.K.K.K.K.K.K.K.K.K.K.K.K.K.K.",
"K.K.K.K.K.K.K.K.K.K.K.K.K.K.K.K.K.K.K.K.K.K.K.K.K.K.K.K.K.K.K.K.K.K.K.K.K.K.K.K.K.K.K.K.K.K.K.K.K.K.K.K.K.K.K.K.K.K.K.K.K.K.K.K.",
"K.K.K.K.K.K.K.K.K.K.K.K.K.K.K.K.K.K.K.K.K.K.K.K.K.K.K.K.K.K.K.K.K.K.K.K.K.K.K.K.K.K.K.K.K.K.K.K.K.K.K.K.K.K.K.K.K.K.K.K.K.K.K.K.",
"K.K.K.K.K.K.K.K.K.K.K.K.K.K.K.K.K.K.K.K.K.K.K.K.K.K.K.K.K.K.K.K.K.K.K.K.K.K.K.K.K.K.K.K.K.K.K.K.K.K.K.K.K.K.K.K.K.K.K.K.K.K.K.K.",
"K.K.K.K.K.K.K.K.K.K.K.K.K.K.K.K.K.K.K.K.K.K.K.K.K.K.K.K.K.K.K.K.K.K.K.K.K.K.K.K.K.K.K.K.K.K.K.K.K.K.K.K.K.K.K.K.K.K.K.K.K.K.K.K.",
"K.K.K.K.K.K.K.K.K.K.K.K.K.K.K.K.K.K.K.K.K.K.K.K.K.K.K.K.K.K.K.K.K.K.K.K.K.K.K.K.K.K.K.K.K.K.K.K.K.K.K.K.K.K.K.K.K.K.K.K.K.K.K.K.",
"K.K.K.K.K.K.K.K.K.K.K.K.K.K.K.K.K.K.K.K.K.K.K.K.K.K.K.K.K.K.K.K.K.K.K.K.K.K.K.K.K.K.K.K.K.K.K.K.K.K.K.K.K.K.K.K.K.K.K.K.K.K.K.K.",
"K.K.K.K.K.K.K.K.K.K.K.K.K.K.K.K.K.K.K.K.K.K.K.K.K.K.K.K.K.K.K.K.K.K.K.K.K.K.K.K.K.K.K.K.K.K.K.K.K.K.K.K.K.K.K.K.K.K.K.K.K.K.K.K.",
"K.K.K.K.K.K.K.K.K.K.K.K.K.K.K.K.K.K.K.K.K.K.K.K.K.K.K.K.K.K.K.K.K.K.K.K.K.K.K.K.K.K.K.K.K.K.K.K.K.K.K.K.K.K.K.K.K.K.K.K.K.K.K.K.",
"K.K.K.K.K.K.K.K.K.K.K.K.K.K.K.K.K.K.K.K.K.K.K.K.K.K.K.K.K.K.K.K.K.K.K.K.K.K.K.K.K.K.K.K.K.K.K.K.K.K.K.K.K.K.K.K.K.K.K.K.K.K.K.K.",
"K.K.K.K.K.K.K.K.K.K.K.K.K.K.K.K.K.K.K.K.K.K.K.K.K.K.K.K.K.K.K.K.K.K.K.K.K.K.K.K.K.K.K.K.K.K.K.K.K.K.K.K.K.K.K.K.K.K.K.K.K.K.K.K.",
"K.K.K.K.K.K.K.K.K.K.K.K.K.K.K.K.K.K.K.K.K.K.K.K.K.K.K.K.K.K.K.K.K.K.K.K.K.K.K.K.K.K.K.K.K.K.K.K.K.K.K.K.K.K.K.K.K.K.K.K.K.K.K.K.",
"K.K.K.K.K.K.K.K.K.K.K.K.K.K.K.K.K.K.K.K.K.K.K.K.K.K.K.K.K.K.K.K.K.K.K.K.K.K.K.K.K.K.K.K.K.K.K.K.K.K.K.K.K.K.K.K.K.K.K.K.K.K.K.K.",
"K.K.K.K.K.K.K.K.K.K.K.K.K.K.K.K.K.K.K.K.K.K.K.K.K.K.K.K.K.K.K.K.K.K.K.K.K.K.K.K.K.K.K.K.K.K.K.K.K.K.K.K.K.K.K.K.K.K.K.K.K.K.K.K."
};
