/* XPM */
static char *result[] = {
/* columns rows colors chars-per-pixel */
"64 64 39 1 ",
"  c #5A4E4D",
". c #5E534E",
"X c #5F5552",
"o c #615552",
"O c #655A55",
"+ c #695C57",
"@ c #665C59",
"# c #6A5E5A",
"$ c #6D615D",
"% c #71645E",
"& c #72685F",
"* c #6E6360",
"= c #726662",
"- c #756964",
"; c #796C66",
": c #776C68",
"> c #7B6E69",
", c #7B7066",
"< c #7E716C",
"1 c #7F7270",
"2 c #81746E",
"3 c #84786F",
"4 c #837671",
"5 c #867973",
"6 c #897C76",
"7 c #877B78",
"8 c #8B7E79",
"9 c #8E8077",
"0 c #8E817B",
"q c #91847E",
"w c #96887F",
"e c #938681",
"r c #968983",
"t c #998C85",
"y c #9C8E89",
"u c #9E918B",
"i c #A1938D",
"p c #A39691",
"a c #A49893",
/* pixels */
"0qeq8yyyrryyiuyrtuitpuyuuytuiyrwwqqqw999668w6w8w6wqtw8y68w8wwwii",
"8e878eeer8rtrtytetw9tt0wywttww8q8868966q88686y886w8w88w68w6ww8t8",
"78q8eeeqqqqewreqrtetreqettwttr8968qq966q6w6r6w3r8w6w88868w6yw8rr",
"067q080e8eqqqqrqrqrytuewqwwtwt968989q66988686w3w686e88w68t6888yy",
"77q877eeqq8eqewet8eequeeqwetet666898955q5e685888686w88r6886tr8ww",
"58880re0ewqeeetr0ereqy00wq8tqw8668q8863q68584e6t666866w6w86888tt",
"6q7q88ee866ee8treterqe9eq90eqq8868q8q85948886e5838886686886888wt",
"7768458qq7e880rrqe9qrqqqrreerw88968866894848684e68886688883w88w8",
"88q8835qqq86q8689000tre8qeqqwq6889986268386858686r888688886888ii",
"58868558q55qqq8q980tey0688qqqq886868562826465e68688688t36w88w8y8",
"40868848q8qw88yeq98ter88q88rrq868535632648384866586688t6686888ww",
"7887688q88898eyw878eete7e8qq88885353663628482856886866866868t8yy",
"864q566e88868qeeqqqqqw8988q8qw668663862628585666686886886888w88y",
"645e6668888q85qqqeq8q06988e88e888655663848682888688866886888y6iy",
"55776868qq8q888e560er98809qq58536656822638382848888686886858868w",
"787q666668688q88568e7q070986q9656558852448486846866688888868e8ii",
"44582>72425866qq888eq686997r99656455552326686828668884e84e48e8ee",
"44444646566656t8666q8888886q006325653626283868446388q4885q88e8yy",
"6>48555656886686586e88e8836q00754668662638482826368887844q84w8rr",
">4455655668586884868w85658q6775346268628362838666688q4882e88t8ty",
"42446854665488888864eee26q6688224626862826384886668685q82w88t8rr",
"642446246665888888858q868q688q6442466326285648663664e6882888r88t",
"44244484226666e86688q888886q68452666862628342658668686683r86r8rt",
"445546545238368845878e58q66q88526826642626265656628686565886r8et",
"2;452727544886586588qe75688e8e646645562448266886558584882883q8ey",
"=24422425247654856866q85787888654545882825585866588584683866q88w",
"24522242222268866688588886878644426686222656444665e585882866q8wy",
"44422:22224268886868888686887555622662242655455455848588268688qt",
"24722222442:2788688558q5887786445446622426244555648465685555eqqy",
">>4>:2224422478826826785450756555256e82424266253848585585685qqwt",
">22>2:2:2222748826668q54446804455426862423564562828482583685q8qw",
"2->:2:222222428e2268e845555805442246652425334262848582284886qq8r",
";-<<<,<142;>5567226760556447422223222422-222445284828658888688wu",
"<:<;:<4141>44477456655628844422=4222222722224452828286686885888i",
"<;:;<3>>>>2>4124458878527647442222222222=22242824284886866858wwa",
"-;<;:<>>;>4>4>4647755q8547444222222222=222222482846485486586888i",
"&:<:;>2>>44>427848658q674444444-:2222422222222828284844e6686888a",
",=:<>;>;=>;>>148>55588668446644242:222-22:2-42525254866856868w8a",
";$;<$>-->;;>>2845775476454542442222222:222:22-52825466283583688i",
"<::=>->;:>>>22875754588446667722222222=2:2222:72428488255363866i",
"-*--;;:-=24>2;44<456<5544424442:2:2222%22%222;52428456445484888y",
"<$;%--&;=;2>2444<<<4575<22244422::2:2=%2#2222252445445286285688y",
">=;$=;-;=;;2;247<54<486422:274222*:2%2%=2%==7=2-4454452662635e8p",
"-%=+$-;;2;-:>>78<3<45545222242>;=2*2222222=222224244662442625r8y",
"%==*==:>;;:4<>4744>;574>2422222==222*2=2==:242724>45442742665r8i",
"--=-%--===;>>>>4>1>4775222:2222%2*#2=2#22=2=4=4:4>7448244488486t",
">;%-->==-:=$>>>5<>;585<<2:22222#2=22*2*222224=724>44442444885e6r",
"=*=-==%-=:=*:<15>442554<2=222222*2*=2==*%#2=2222544>26244265288t",
"*#-==*==$*===4442:22=42=2=22222=;=-=;;&-:-2-<;5<44>4<0<24<55<e9e",
"#=*-$*=*##=;;>442:24242222:222=%--;->;--<-<:<;2<2>>414;45>57<07e",
"O$=$**;;%%-;:>>1:224244::224222-;---;;-%:-,=<;<>>>>2<5<25<54175t",
"#*$-=#;======;>222=442222=22=2-=>;--;>-%>$:-2-<<<2>><5<<5<44109e",
"$$#$=##=%=#$=;4>22:7222==:2222:-;==;--%&>$;-<-<>>2><>1;<1<33<550",
"%#O##$=*#$$2*;1>*2=7242:22:=2>:=*;=;=:-%<$<-<:<;>;>4:5<<1<37,519",
"$+$#%*####*=*;;=:=:222222:22=2=*===<--:$>*<;2;<>;<;1-4<>5<<7,999",
"o+#$##$+##$%=*=4:2:=22222:=:*=2==$;;-=-$>#>=<->>:<;>:<<>1<<5<119",
"####+*#+%#$%%-222:2--22==>;>-->$$--;-$$$:$:-&&:;><-<:<<:3,37<575",
"O@+#@#o#%###&%===*=22222;;>;>->=$$$-$$$$:$:$-*%-;<-<,1<,1<,7<272",
"o ooo#@o###%2%%&#=%222:=:;==::>#$$$*%$%+$$&$>&=:%;-<:<::7,15<373",
"ooooO+Oo+OO##$$2==:=222*>====>-+**$*$%$@-$&$--->%<-<:<,:1<<1<37<",
"o@@o#oooo@@*#+*;=:22224===;=>-=+$$$$$$$#-+$$===;$<-<&<=:1,<5<<7<",
"o#O o#@oo###++==%:==:22=;;-=-=-#$#$$$$$@&$$$$--:-<=>*<:=1,:<,,9,",
" o oooo#o@####*2===:=2;*;=*=-;-$$$@$$$+X-$@$--=;%2%;=<<*31<3,:5,",
"oo o oo oo@#*@o2*==:::2**###$#$@O++OO+$X@O$$$$$-=>;:=:<&<<<7<,71"
};
