/* XPM */
static char *result[] = {
/* columns rows colors chars-per-pixel */
"64 64 222 2 ",
"   c white",
".  c #FEF9F8",
"X  c #FEF6F5",
"o  c #F7BAB5",
"O  c #F9CBC7",
"+  c #FFFEFE",
"@  c #FEF5F4",
"#  c #FCE9E7",
"$  c #FCE5E3",
"%  c #FEF5F5",
"&  c #FFFFFE",
"*  c #FCE4E2",
"=  c #EC5C50",
"-  c #F8C1BC",
";  c #FBE0DD",
":  c #F39B93",
">  c #ED665A",
",  c #EA5043",
"<  c #EA4D3F",
"1  c #EA5143",
"2  c #ED675B",
"3  c #F39D95",
"4  c #FCE1DF",
"5  c #FFFCFC",
"6  c #F28D84",
"7  c #E73626",
"8  c #F8C3BE",
"9  c #F6B5AF",
"0  c #E73122",
"q  c #E73020",
"w  c #E73121",
"e  c #E73222",
"r  c #EB5244",
"t  c #F6B4AE",
"y  c #FFFBFB",
"u  c #F8C7C3",
"i  c #E94132",
"p  c #E73627",
"a  c #F6AFA9",
"s  c #E93E2F",
"d  c #E73324",
"f  c #E83728",
"g  c #E73323",
"h  c #E73120",
"j  c #E83D2E",
"k  c #F5A9A2",
"l  c #FFFDFD",
"z  c #FDEFEE",
"x  c #ED685C",
"c  c #FAD1CE",
"v  c #E94839",
"b  c #E83C2C",
"n  c #EF756B",
"m  c #F5AEA8",
"M  c #F8C2BD",
"N  c #F5ABA4",
"B  c #EF776D",
"V  c #E83E2F",
"C  c #E73221",
"Z  c #E94334",
"A  c #F9C9C4",
"S  c #F4A29A",
"D  c #E73525",
"F  c #FEF8F7",
"G  c #EF766C",
"H  c #F6B1AB",
"J  c #FEF8F8",
"K  c #FEFAF9",
"L  c #F7B8B2",
"P  c #EA483A",
"I  c #EE6E63",
"U  c #FAD7D4",
"Y  c #EA4A3D",
"T  c #E94031",
"R  c #F4A49D",
"E  c #E83929",
"W  c #F9CBC6",
"Q  c #FEF7F6",
"!  c #EF7A70",
"~  c #F4A19A",
"^  c #EC5E52",
"/  c #FDEEED",
"(  c #FEF3F2",
")  c #F39890",
"_  c #E8392A",
"`  c #F07C72",
"'  c #E7301F",
"]  c #F2958C",
"[  c #F39A92",
"{  c #EF776C",
"}  c #EC584B",
"|  c #E73424",
" . c #ED6458",
".. c #E72D1D",
"X. c #F7B6B1",
"o. c #F28E85",
"O. c #EB5548",
"+. c #F4A29C",
"@. c #F1877E",
"#. c #F18C83",
"$. c #FBDBD9",
"%. c #F8BFBA",
"&. c #E73727",
"*. c #EC6255",
"=. c #F8C8C4",
"-. c #F6B2AC",
";. c #ED6155",
":. c #F5A69F",
">. c #EE6F64",
",. c #FEFAFA",
"<. c #ED685D",
"1. c #F08278",
"2. c #EC6053",
"3. c #F07B71",
"4. c #F18980",
"5. c #F4A39C",
"6. c #EB4F42",
"7. c #FBDDDB",
"8. c #EC5F53",
"9. c #FBDAD7",
"0. c #F7B7B2",
"q. c #FAD8D5",
"w. c #EA4C3D",
"e. c #F5A8A1",
"r. c #FEF4F3",
"t. c #F28C83",
"y. c #EB5649",
"u. c #F07C71",
"i. c #EE6D62",
"p. c #FDF2F1",
"a. c #F9C7C3",
"s. c #E94233",
"d. c #F49D96",
"f. c #F6B5B0",
"g. c #E83A2B",
"h. c #FDEAE8",
"j. c #ED6357",
"k. c #EC5A4D",
"l. c #FCE7E5",
"z. c #F29289",
"x. c #E83B2C",
"c. c #F7B9B3",
"v. c #F28E86",
"b. c #EC5A4E",
"n. c #FCE6E5",
"m. c #F6B6B0",
"M. c #E83C2D",
"N. c #F1857B",
"B. c #F9C8C4",
"V. c #E83B2B",
"C. c #EA5042",
"Z. c #EC5D51",
"A. c #FDF0EF",
"S. c #F7B9B4",
"D. c #F6B3AD",
"F. c #F8C5C0",
"G. c #FDF0EE",
"H. c #ED695D",
"J. c #F07C73",
"K. c #FDEFED",
"L. c #E94436",
"P. c #FAD6D3",
"I. c #E94133",
"U. c #E73425",
"Y. c #FEF2F1",
"T. c #F4A29B",
"R. c #FBD9D6",
"E. c #F2938B",
"W. c #E83727",
"Q. c #FAD5D2",
"!. c #E93F30",
"~. c #E72F1F",
"^. c #EC5C4F",
"/. c #EA4C3E",
"(. c #F49E97",
"). c #FEF9F9",
"_. c #FDEEEE",
"`. c #EC5E51",
"'. c #F7BFBA",
"]. c #FEFCFC",
"[. c #F07E74",
"{. c #EA4638",
"}. c #E83829",
"|. c #ED6256",
" X c #FEF7F7",
".X c #E83828",
"XX c #EE7065",
"oX c #EE6C60",
"OX c #F8C7C2",
"+X c #F8C6C1",
"@X c #FAD3D0",
"#X c #F6B7B2",
"$X c #E72D1C",
"%X c #F28F86",
"&X c #EA493A",
"*X c #F9CDC9",
"=X c #E72E1E",
"-X c #FEFBFB",
";X c #F2938A",
":X c #F6ADA7",
">X c #FAD4D1",
",X c #F28D85",
"<X c #F1887F",
"1X c #E94739",
"2X c #EF7469",
"3X c #F28B82",
"4X c #F18A81",
"5X c #EE6A5E",
"6X c #FDECEA",
"7X c #E94738",
"8X c #F8C4C0",
"9X c #FDF0F0",
"0X c #EB574A",
"qX c #EB5547",
"wX c #F07F75",
"eX c #EC6054",
"rX c #EB5143",
"tX c #ED6559",
"yX c #F8C6C2",
"uX c #F6B8B3",
"iX c #FDEAE9",
"pX c #F6B6B1",
/* pixels */
"                                                                                                                                ",
"                                                                                                                                ",
"                                                                                                                                ",
"                                                                                                                                ",
"                                                                                                                                ",
"                                                                                                                                ",
"                                                                                                                                ",
"                                                                                                                                ",
"                                                                                                                                ",
"                                                                                                                                ",
"                                                                                                                                ",
"                                                                                                                                ",
"                                                                                                                                ",
"                                                              . X                                                               ",
"                                                              o O                     + @ # $ # % &                             ",
"                                                            * = -                 & ; : > , < 1 2 3 4                           ",
"                                                          5 6 7 8               5 9 1 0 q w w w q e r t y                       ",
"                                                          u i p 8             + a s w e q d f g q e h j k l                     ",
"                                                        z x q f 8             c v w e b n m M N B V C w Z A                     ",
"                                                        S D e f 8           F G q e Z H J       K L P C q I @                   ",
"                                                      U Y w g f 8           c T e 7 R +             a E e j W                   ",
"                                                    Q ! h g g f 8           ~ e h ^ /               ( > q w )                   ",
"                                                    9 _ e g g f 8         l ` ' w ]                   [ w ' { 5                 ",
"                                                  $ } w g | g f 8         X  ...e X.                  L D q  .X                 ",
"                                                5 o.e w O.< w f 8         J +.@.#.$.                  %.&.q *.@                 ",
"                                                =.i w j -.;.q f 8                                     :.e ' >.,.                ",
"                                              z <.q w 1./ 2.q f 8                                   5 3.q q 4.                  ",
"                                              5.D w 6.7.X 8.q f 8                                   9.P w 7 0.                  ",
"                                            q.w.w 7 e.  r.8.q f 8                                 5 t.w w y.#                   ",
"                                          F u.h q i.p.  r.8.q f 8                                 a.s.e g d.                    ",
"                                          f.g.w Z O     r.8.q f 8                               h.j.h w k.l.                    ",
"                                        $ } h e z.l     r.8.q f 8                             ,.6 g e x.c.                      ",
"                                      5 v.e h b.n.      r.8.q f 8                             m.M.e e N..                       ",
"                                      B.i w V.c.        r.8.q f 8                           q.C.w h Z.$                         ",
"      A.S.t t t t t t D.F.y         G.H.q w J.J         r.8.q f 8                         K.I h e L.u                           ",
"      P.I.d U.U.U.U.U.0 ^ Y.        T.D w < R.          r.8.q f 8                       y E.| e W.5.+                           ",
"      Q.!.w e e e e e ~.^.p.      q./.w D (.,.).).).).,._.`.q f '.].).].                0.j e w [.@                             ",
"      U {.}._ _ _ _ _ W.|.(      X3.w g .X .XX>.>.>.>.>.oXT e U.^ XXi.H               q., w w 2.$                               ",
"      r.W OXOXOXOXOXOX+X@X5     #Xg.e g g w q q q q q q q e g g w q $X%X            z I w w &X*X                                ",
"                              * y.=Xq q q q q q q q q q q e g g w q $X%X          -X;X| e g.:X                                  ",
"                              >X,X6 6 6 6 6 6 6 6 6 6 6 <X1Xe D 2Xv.3X8           L j e e 4X).                                  ",
"                                                        r.8.q f 8               U C.w w 5X6X                                    ",
"                                                        r.8.q f 8             / i.q e 7X8X9X/ / / / / / / / Y.+                 ",
"                                                        r.8.q f 8           y z.| g e j 0X0X0X0X0X0X0X0X0XqXwX X                ",
"                                                        r.8.q f 8           L j e g g e w w w w w w w w w =X|.X                 ",
"                                                        r.eXw }.8         q.rXe | | | | | | | | | | | | | w tXX                 ",
"                                                        y yXf.uXiX        7.9 pXpXpXpXpXpXpXpXpXpXpXpXpXpXf.=.5                 ",
"                                                                                                                                ",
"                                                                                                                                ",
"                                                                                                                                ",
"                                                                                                                                ",
"                                                                                                                                ",
"                                                                                                                                ",
"                                                                                                                                ",
"                                                                                                                                ",
"                                                                                                                                ",
"                                                                                                                                ",
"                                                                                                                                ",
"                                                                                                                                ",
"                                                                                                                                ",
"                                                                                                                                ",
"                                                                                                                                ",
"                                                                                                                                ",
"                                                                                                                                "
};
