/* XPM */
static char *result[] = {
/* columns rows colors chars-per-pixel */
"64 64 218 2 ",
"   c #1D2B36",
".  c #2B2E34",
"X  c #252D34",
"o  c #312F35",
"O  c #2C3136",
"+  c #2B333A",
"@  c #27313A",
"#  c #323236",
"$  c #34343A",
"%  c #3B363A",
"&  c #3B363A",
"*  c #483B3C",
"=  c #56423F",
"-  c #193A4C",
";  c #283844",
":  c #353A44",
">  c #3C3942",
",  c #393B47",
"<  c #473C45",
"1  c #563E42",
"2  c #3A414A",
"3  c #2F4E5B",
"4  c #285769",
"5  c #3C5B66",
"6  c #1B6573",
"7  c #1D6875",
"8  c #176575",
"9  c #256C76",
"0  c #286C77",
"q  c #256D79",
"w  c #2A6E79",
"e  c #296373",
"r  c #346874",
"t  c #25717D",
"y  c #2B717C",
"u  c #31737F",
"i  c #44434C",
"p  c #4B454B",
"a  c #534243",
"s  c #59464A",
"d  c #4B4854",
"f  c #554D54",
"g  c #594B57",
"h  c #54525C",
"j  c #595259",
"k  c #654A4A",
"l  c #685458",
"z  c #76585B",
"x  c #654A53",
"c  c #74615E",
"v  c #5C5862",
"b  c #645B64",
"n  c #6B5D67",
"m  c #735E64",
"M  c #5D6369",
"N  c #6A646B",
"B  c #6E6666",
"V  c #76676B",
"C  c #6D6974",
"Z  c #756C73",
"A  c #796B75",
"S  c #7E747B",
"D  c #757379",
"F  c #815C5B",
"G  c #8A6C6B",
"H  c #856466",
"J  c #83757C",
"K  c #87777B",
"L  c #977877",
"P  c #916D6E",
"I  c #A5787A",
"U  c #9F817F",
"Y  c #A7837C",
"T  c #1D7282",
"R  c #267481",
"E  c #2A7583",
"W  c #2A7886",
"Q  c #2C7C8B",
"!  c #277C8B",
"~  c #3B7D8A",
"^  c #357A87",
"/  c #3A7F90",
"(  c #457886",
")  c #717D87",
"_  c #887C82",
"`  c #9B7D81",
"'  c #927B82",
"]  c #A07D82",
"[  c #2C818E",
"{  c #36818F",
"}  c #278493",
"|  c #298695",
" . c #2B8997",
".. c #2A8798",
"X. c #278999",
"o. c #2D8B99",
"O. c #268895",
"+. c #338493",
"@. c #348995",
"#. c #328E9B",
"$. c #3B8D9C",
"%. c #378795",
"&. c #2F909D",
"*. c #35919D",
"=. c #3A919E",
"-. c #3A8FA1",
";. c #3C91A2",
":. c #3591A0",
">. c #46828E",
",. c #478795",
"<. c #49919D",
"1. c #55949C",
"2. c #548991",
"3. c #778F92",
"4. c #718D92",
"5. c #4293A3",
"6. c #4C94A4",
"7. c #4A94A8",
"8. c #5396A4",
"9. c #5A97A8",
"0. c #5E9AAA",
"q. c #5C98A4",
"w. c #6D9DA5",
"e. c #659DAB",
"r. c #689BA7",
"t. c #729BA4",
"y. c #769FB1",
"u. c #79A2A9",
"i. c #7AA4B1",
"p. c #6EA1AD",
"a. c #8C8689",
"s. c #8A8588",
"d. c #948C8D",
"f. c #9D8C8E",
"g. c #988386",
"h. c #978C91",
"j. c #9B9394",
"k. c #989596",
"l. c #899096",
"z. c #A38381",
"x. c #AB8A86",
"c. c #AC8B8B",
"v. c #A68887",
"b. c #B6898B",
"n. c #A9918E",
"m. c #B5928C",
"M. c #A28D92",
"N. c #A49395",
"B. c #A29B9B",
"V. c #AC9B9B",
"C. c #A99597",
"Z. c #B49493",
"A. c #BA9B95",
"S. c #B59B9B",
"D. c #B59A9A",
"F. c #A8A09F",
"G. c #BEA29B",
"H. c #B6A19B",
"J. c #829CA9",
"K. c #AB9DA0",
"L. c #B59EA1",
"P. c #89A7AD",
"I. c #9AA5A7",
"U. c #89A9B4",
"Y. c #94AEB3",
"T. c #94ADBA",
"R. c #9AAFB8",
"E. c #9CB1BA",
"W. c #9DB1B6",
"Q. c #ACA4A4",
"!. c #ACA7A6",
"~. c #B4A2A3",
"^. c #BBA3A3",
"/. c #B2A6A9",
"(. c #B3ABAC",
"). c #BBACAC",
"_. c #BCA8A5",
"`. c #B8AFB1",
"'. c #ABB7BC",
"]. c #A4B3BA",
"[. c #BBB2B3",
"{. c #B7B5B8",
"}. c #AFB0B0",
"|. c #C29998",
" X c #C2A69E",
".X c #C1A5A2",
"XX c #C4ABA5",
"oX c #C3ADAA",
"OX c #C9AAA7",
"+X c #C4B1AB",
"@X c #CAB3AD",
"#X c #C3B4B4",
"$X c #CBB6B2",
"%X c #CDBAB6",
"&X c #C5BBBB",
"*X c #CBBDBC",
"=X c #C4B7B8",
"-X c #D1BBB6",
";X c #D1BEBA",
":X c #D0B7B3",
">X c #C9B3B1",
",X c #CCC0BE",
"<X c #C7C0BD",
"1X c #D2C1BD",
"2X c #A9B6C2",
"3X c #BBBEC3",
"4X c #B5BCC2",
"5X c #C1BFC3",
"6X c #BDC0C4",
"7X c #C5C1C4",
"8X c #CDC5C5",
"9X c #CDC5C9",
"0X c #CDC8C8",
"qX c #D2C6C4",
"wX c #D2C9C7",
"eX c #D1C7C8",
"rX c #D3C9C9",
"tX c #D8CAC9",
/* pixels */
"#.#.#.#.#.#.#.#.#.#.#.#.#.#.#.#.#.#.#.#.#.*.:.*.*.:.*.*.*.*.*.@.*.*.*.*.[ 9 9 7 9 7 q 7 q 9 9 9 9 9 9 9 9 9 9 0 9 q w 9 9 w w w ",
"#.#.#.#.o.o.#.#.#.#.#.#.#.#.#.#.#.#.*.:.*.#.#.:.*.#.*.*.*.&.*.*.*.*.*.=.[ 9 7 9 7 q q q 7 9 9 9 9 e 9 9 0 9 0 0 0 0 9 9 w w t w ",
"#.#.#.o.#.#.#.#.#.#.#.&.#.#.#.#.*.#.*.:.#.*.*.#.#.:.#.:.*.*.*.*.*.*.*.$.O.t 9 7 q 7 q 7 9 9 9 9 9 9 9 9 9 9 9 9 0 9 9 w w w w w ",
"#.#.#.#.#.#.#.#.#.#.#.@.#.#.#.#.#.#.#.#.#.*.#.#.$.:.:.$.*.*.=.*.$.=.=.*. .t t 9 q 9 q q 9 6 9 9 9 9 9 9 9 0 9 0 t 0 0 w w w y w ",
"#.#.#.#.o.#.#.#.#.#.#.#.#.#.*.#.#.#.#.#.#.#.*.#.#.-.=.*.*.*.=.=.=.=.=.*.*.[ t t q q q q 7 9 9 9 9 9 9 9 9 9 9 0 w t y 0 w t w t ",
"#.#.#.o.#.*.#.#.#.#.#.#.#.&.#.*.*.*.#.#.$.#.=.*.:.=.&.*.:.*.=.:.;.=.=.*.*.*.#.#.Q W t q 9 9 9 9 9 9 9 9 9 9 9 9 9 9 9 0 9 9 0 9 ",
"#.#.o.*.#.#.#.#.#.#.#.#.*.#.#.#.:.o.o.*.:.:.=.*.#.<.6.e.p.i.E.W.].E.U.i.p.q.1.=.=.*.#.Q t t q 9 9 9 9 9 9 9 9 9 9 9 0 0 w 9 0 w ",
"#.#.*.o.o.o.o.@.#.#.#.@.#.#.#.#.#.*.*.:.*.#.=.8.U.'.7X8XrXrXtXtXtXtXtX0X8X0X'.Y.w.6.=.*.+.! t q 9 9 9 9 9 9 9 9 t 9 t 0 t 9 y w ",
"&.@.@.&. .#.&.@.o.@.@.&.@.&.@.&.#.#.:.o.=.w.E.7XtXtXrXrXeXwXwXwXrX0XwXwXqXrXtXrX9X4XU.q.;.=.+.W t t t 9 9 9 w t 9 w 9 y 9 y 9 t ",
"&.&.&. .#.#.&.#. .#.&.&. .&.o.#.#.&.#.e.'.wXtXwXrX9XrXrXrXwXwXrXrXrXrXwXrXrXrXrXrXrXrX7XY.9.=.#.[ t t 9 9 9 9 9 9 9 w 9 9 9 t w ",
"&.@.&.&.#.#. .&.&.&.@.@.o.#.*.#.#.1.R.8XrXwXwXrXrXrXrXrXqXrXeXrXwXrXrXwXrXrXrXrXrXrXrXrXrX4Xi.7.=.[ t 9 9 9 9 9 9 9 9 9 9 t 9 0 ",
"@.&.&.#. .#.#.#.&.#.&.&.#.#.*.@.1.3XtXeXrXrXwXrXrXrXrXrXwX*X#X=X=X1XrXwXrXrXrXrXrXrXrXrXrXrX9XT.8.=.@.W 9 9 9 9 9 9 9 w 9 9 0 0 ",
"&. .&.&.#.&.@.&.@.&.&. .#.*.@.w.7XrXeXeXeXrXrXrXtXeXrX5Xj.N h j v S /.9XeXrXrXrXrXtXrXrXrXrXrX0XE.9.;.@.y t t 9 9 9 9 9 9 0 0 0 ",
"&.@. .@. .&.&. .&.#.&.@.&.@.u.,XeXwXrXeXrXrXrXrXrXrX5X_ , : : ; : : f k.8XeXrXrXtXrXrXrXrXrXrXrXrX'.e.5.@.t y w 9 9 w 9 9 9 w 0 ",
"&.&.&.&.@.&. .@.@.&.#.#.@.u.8XwX9XrXrXqXrXrXrXrXqXqXa.i 2 : : : , i i g B.eXqXrXrXrXrXrXrXrXrXtXrXrX2X9.<.@.W 9 9 9 9 9 9 9 9 t ",
"@.&. .@.&.&.&.&.&.&.#.o.p.8XqXwXeXrXrXrXrXrXrXqXrX/.N g h f d g b Z S V V Q.rXqXrXrXrXrXrXrXrXrXrXrXrX2Xq.=.[ t w w y 0 0 0 0 0 ",
"&.&.&.@.&.@.&. .*.o.o.q.8XeXeXeXeXrXqXrXqXeXwXrX=Xd.g.V.~.B.M.C.L.oX>XoXC.) `.qXrXrXrXrXrXrXrXrXrXrXeXeXE.7.;.Q E R q q 0 0 0 e ",
"&.@.&.&.O.&.@.&.o.o.<.'.eX8XeXrXrXeXrXeXrXrX8XrX~.Q.,X1XqX;X;X;X%X;X%X;X-XK.A (.rXqXwXrXtXrXrXrXrXtXrXrX9Xi.;.:.E R q q 0 0 0 0 ",
"&.&.&.@.@.&.&. .#.@.P.eXqXeXrXrXeXeXrXrXrXwXrX&XS.*XtX1XqX1XqXqX5X5X;X;X-X=X_ _ 8XwXwXrXtXrXrXrXrXtXrXrXrX3X0.;.Q E R e 0 9 q 9 ",
"O.@.O.@. . .&.@.@.q.5XeXeXeXeXeXrXeXrXrXqXwXqXQ.oXtX1XtXqXqX1XqXtX1X;X5X%X>X).J (.rXrXrXrXrXrXrXrXrXrXrXrX9XT.7.-.E e R 0 9 9 9 ",
"O.@. . .&.@.&.&.%.W.qXqXeXeXrXeXeXrXrX9XqXrX).d.;XtX1X1X5XtXtX5X1X1X1X;X$X#X$Xh.j.qXeXrXrXwXrXrXrXrXrXrXrXrX9Xe.;.Q E q q w q q ",
"&.&.&.@.&.&.&.O.q.8XqXqXeXeXeXeXeXrXwXrXrX8XB.V.1XtXtX1XtXtX1XtX1X1X;X-X>X#X#XK.s.*XrXwXrXwXrXqXrXrXrXtXrXrXrXE.8.$.W q q q 0 0 ",
"@. . .&.&.@.&.@.R.eX9XeXeXrXrXrXrXeXrXrXtX[.a.).qX5X;XtX1XtXtX;X1X1X1X;X%X#X).V.J &XrXqXrXrXrXwXrXrXrXrXrXrXeX7Xe.;.Q w 9 0 9 0 ",
"&.&.@.&.O.&.O.<.3XeXeXeXeXrXrXrXrXrXrX0XtX(._ `.;XtX1X1X1X;X;XtX1X1X@Xc.n./.oXN.Z [.rXrXwXrXeXrXrXtXrXrXrXrXrX9Xi.;.+.y 0 9 9 t ",
"@. .&.&.o.o. .w.wXqXeXrXeXrXrXrXeXeXrX9XeX`._ /.5X^.' J ^.5X5X;X;XXXV , > n f.M.N [.wXrXrXwXrXrXrXrXrXrXrXrXqXrX2X7.$.E q q w w ",
" .#.&. .o.&.o.Y.rX8XeXeXrXeXeXeXrXrXrXrXeX/.A K.D.A v < l D.:X:X).P < , , i f _ N [.rXwXrXrXwXrXwXrXrXwXqXrXwXtX5X0.;.Q q q 0 q ",
" .@.&. .o.o.$.'.eX8XeXeXrXeXrXeXrXrXrXeXtX`.) N.B._ N b g _ D.L.U l h h h v f d h =XrXwXwXwXrXrXrXeXrXrXrXrXrXwX9Xy.;.Q y q w 0 ",
"#.#.&.#.*.o.1.<XqXwXeXeXeXeXrXrXrXrXrXeX5X`.n g _ _ n h n g n n i f h i < < v < v ,XwXrXrXrXrXwXrXrXrXrXrXrXeXwXeXU.5.#.R q t y ",
" .#.#.o.#.X.r.8X8XeXeXeXeXeXrXrXrXrXtX9X9X9X_ ) ' f._ , J _ ' ).A n C < C A g < D qXqXrXrXrXrXrXrXrXrXrXrXrXrXwXeX2X7.+.W q 0 w ",
"&. .o.#.o.X.u.qX9XeXeXqXeXeXeXeXrXrXtX9XtX9X) _ >X).L.f.L.] D.;X_ M.L.K ` C.] C Z qXqXwXrXrXtXrXrXrXrXrXrXeXeXrXrX4X7.-.W 0 0 w ",
"&.o.o.#.*.o.P.wXeXeXeXeXeXeXrXrXrXtXtXrX9XrXl.h.5X>XL.Z.C.' ).;X' M.D.] ' c./._ d.rXrXrXrXrXrXrXrXtXrXrXrXrXeXeXeX3X9.%.W 0 q w ",
"o.&.o.o.&.o.Y.wX9XeXeXeXrX9XrXrXrXrX9XtXrXtX5X`.>XOXD.C.C.` ).5Xh.z L ] ] C.M.] ).qXrXrXrXrXrXrXrXrXrXrXrXtXeXeXeX3Xe.-.W 0 w w ",
" .&.&.@.&.&.W.tX0XwXrXrXrX,XwXrXtXrXrXrXrXwX8X#XD.L.L.L.^.L.;X;XC.1 ' ] Z.D.Z.] H.<XwXwXwXwXrXrXrXrXrXrXrXrXrXwXwX6Xe.=.W 9 0 0 ",
"&. .#.&.&.&.Y.tX0XwXrXrXrXrXrXrXrXrXrXrXrXrX,X,XL.L..X:X>XOX;X5XL.n z ] D.L.oXL.S.<XwXwXrXwXrXrXrXrXrXrXrXwXwXwXwX6Xq.*.W y u 0 ",
"&. .&. .*. .Y.1X0X0X,XrXrXrXwXrXwXrXrXrXrXrX,X1X*X` ` L.OX5X:X:XZ.] ' H b..X^.L.H.<XwXrXrXrXrXrXrXrXrXtXrXrXwXwXwX6X6.*.u w 0 0 ",
"o.&.&. .&.&.i.rX,XwXrXrXrXrXwXrXrXrXrXrXwXrX,X*X5XoXL.|..X] c..XH F D.Z.c.] c.c.C.<XwXrXrXrXrXrXrXrXrXtXwXrXwXwXrX'.6.*.W u w w ",
"X.X.&. . .X.w.<X0XrXrXwXrXrXtXrXrXrXrXrXwXtX&X*X5X-X:X:X>X` c.` s s Y @X.Xc.z.x.F.,X1XrXrXrXrXrXrXrXrXrXrXrXrXwXwX].8.%.u y w 0 ",
"o.&.o.&.&.X.q.<X0XwXwXrXrXrXrXrXrXrXtXrXrXtX<X&X;X-X-X-X;XoXL.m * s I XXXXA.x.z.N.<XwXwXrXrXrXrX1XrXrXrXrXrXwXwXwXU.<.@.R 9 w w ",
"o.o.X.o. .&.<.<XrXwXwXrXwXwXrXrXrXrXtXwXrXtX*X&X%X-X-X-X>XG 1 < o % L  X Xn.z.L U 4X<X0XrXrXwXrXrXrXrXrXrXrXrXwX0Xi.=.+.t y w w ",
" .o.o. . .&.#.].rXwX,XrXwXwXrXrXrXrXtXrXtXtX5X+X$X:X Xb.] z 1 x p % s G A.n.L P U {.<X<X1XrXwXwXrXrXrXrXrXrXrXwX6X0.=.[ t y w w ",
"o.o...o.o.:.} u.0X0XwXwXwXrXrXrXrXrXrXrXtXrX<X}.@X+XL G n.x.I b.L x 1 1 H Y V z f.[.[.[.<X,XwXwXrXrX0XrXrXrXeXrX'.6.$.W w w w w ",
"o.o.o.o...#. .1.<X<X0X8XrXwXrXrXrXtXrXrXrXtX<Xn.+X+XY P Y b.] I P F 1 x z G l l j.).[.[.&X<XwXwXwXwXrXwXrXrXqXeXU.:.%.E w 0 w w ",
"X.o.o.o.o.o.o.@.W.wX0XwXqXwXwXrX1XrXrXtXrXrX,XF.G.+X X XOX X X|.b.I P I G l s f B.+X}.[.[.<X<X,XrXrXwXwXwXwXwX5Xq.=.Q t w w w w ",
"X.....o.o.o.@.X.u.0X0X0XwXwXrXrXrXrXrXrXrX1XtXj.g.XX:X-X:XOX X|.b.b.b.b.U k & f F.}.}.}.}.[.[.<XwXwXwXwXwXwXrXT.;.=.^ t w w y y ",
"......o.....o.o.*.'.,X<X,XwXrXrXrXrXrXrXrXrXtX}.V m.OX@X@XA.P F P Y Y x.L a O b H.!.!.(.}.`.[.&X0XwXwX0XrXeX7X0.-.+.E 0 r w w w ",
"X.....o.o.o.o.o.X.w.,X0X0X0X0X0XrXrXrXrXtXrX1X,XA L G.+X@Xm.H k F I Y I s $ O B (.!.}.!.(.(.).[.<X0X0XwX8XrXT.;.$.E 0 w 0 w u w ",
"| X.X.X.X. .X.o.X. .W.,X0X0X0X0XrXrXrXrXrXrXrXtXK z x.OX:XOX XZ.x.Y b.H & + O Z F.!.!.!.(.(.(.).[.8XwXwXeX3X9.;./ R w w w r w w ",
"| ..| o.X. .X.o.&.&.1.6X0X<X0X<X0XwXrXrXrXrXrXrXB.a L  X@X:X:X+X X XA.c $ $ p a.F.F.!.!.!././.(.[.<X0X0X9Xi.;.$.E w w w w w y w ",
"| | X. . . .O. . .o.O.t.8X8X8X8X9X8X0XrX9XwXwXqX&Xs x x.A. X XG.G.A.Y s O & S k.j.F.I.F.!.!.Q.!.(.=X,X0XT.5.$.Q 0 0 w w w 0 w w ",
" .| O. .} O.O.O.O. .o.| P.wX7X8X8X8X9X0XeXwX8X9X=Xa.* l G U Y Y U G j # O p a.k.j.k.k.B.B.B.Q.!.(.`.8X].5.$.+.w t q 0 w r 0 w w ",
"| | | | | | | ..o.o.o.o.@.P.8X7X8X8X8X9X9X8XrXk.K XXb # = = l k = * % O # p f s.f.d.k.k.k.j.k.F.F.(.].6.-.%.E y 0 0 0 0 w w y r ",
"| | O.| | | |  .X.o.o.o.#.@.Y.8X7X8X8X7X7XwX`.$ Z @Xn.a O % % # O O O O & s O p U a.a.a.a.d.d.d.B.l.<.=.%.R 0 0 0 0 0 w r w w q ",
"} | ..} } ..| | | o.X.o. . .@.P.5XqX8X9X8X8XC O C.@X+XU # # O # O # O # 2 p # O 2 B D ) s.d.a.l.4.~ -.+.R 0 0 0 0 0 0 w q y y y ",
"} O.} | } | | |  .|  .O. .#.#.| w.{.`.k.l.C + j XX+X+XG.c # $ # O # # = = = # O X @ : i l 3.s.) +.$.+.R q q w w w w w u w E w r ",
"} } | ..} | | ..X...O. .o.o.o.#.! 4 ; ; : ;   B  X+X+X+Xn.= & & # # * * p = O O O @ O + @ 2 5 ^ $.+.R 9 0 e w w w w w w 0 w w w ",
"} } } ..| | | | | .. . .o.| o. .#.R -   ; @ X l  X+X@X+X_.K s = = * = = = = # @ + O O + : r { @.Q q 9 9 0 0 0 w w w w w w 0 w w ",
"} } | | | | | ....| ..o.....o.o.o.&.| e - X   f G.@X@X+XXXS.z.z = = a a a = X X X X ; 4 ( :.| R q q 0 0 w w w 0 w w w w w w w w ",
"} } | } | | | } | ........o...o.@...o.#.Q e 4 3 4.I.).).XX.XA.Y c k s = a &   @ 3 e / -.$.Q q q q 0 0 0 0 0 w 0 w w r w w w w u ",
"} } } } | | } ..o...o.o.o...o.o.o.....#.o.:.:...[ [ ,.2.4.3.3.3.D M h i 5 r 9 { %.<.+.Q q q q 9 q 9 0 9 0 0 0 0 0 w w w w q w r ",
"} } } | } | | } | | | | ..o...o.o...#.o.:.....$.#.&.o.o.o.o...+.@.%.@.@.@.*.@.{ Q R 0 7 q q q 9 9 9 0 0 0 0 0 0 w 0 w 0 w w w w ",
"} ..| | } } } | ........o...o...X.&.o.o.&. .&.@. .&.*.@.| ! | } | [ ! Q E t 7 7 7 7 7 q 9 w 9 9 9 9 9 9 0 w w ^ w w w w 0 y ( ^ ",
"} ....} } } } .................. .o.o.o.@.@. . . . . .#.7 8 7 7 7 6 7 q 9 6 7 q 9 7 9 9 9 u >.>.>.y 9 9 q q ^ ( ~ u w w 4.I.J.( ",
"[ | | | ..} ..X.! X.! o.......o.o. .#. . .&.&. . . .&.[ 8 8 6 6 6 6 7 7 7 7 q q 9 q 7 9 9 9 >.>.y w 9 9 9 w ~ E ~ u w w l.2Xt.^ ",
"} | | } ..} } ! ........o.o...o.X. . . . .#. . .&. . .t 8 8 6 7 6 6 7 7 7 q q 7 7 9 9 9 9 { ~ u { t 9 9 9 9 2.2.( u w w ( I.T.( "
};
