/* XPM */
static char *result[] = {
/* columns rows colors chars-per-pixel */
"64 64 245 2 ",
"   c #16140D",
".  c #1C1915",
"X  c #1A1815",
"o  c #0D0D08",
"O  c #221E17",
"+  c #29231A",
"@  c #352A1B",
"#  c #262624",
"$  c #2B2926",
"%  c #2C2C2B",
"&  c #2A2723",
"*  c #342C24",
"=  c #322E2A",
"-  c #3B2F24",
";  c #34312C",
":  c #3B342C",
">  c #3B3326",
",  c #333333",
"<  c #3B3B3B",
"1  c #3C3834",
"2  c #2F2F31",
"3  c #48331D",
"4  c #79331C",
"5  c #43382A",
"6  c #453C34",
"7  c #483E36",
"8  c #573D30",
"9  c #7F1E17",
"0  c #59461A",
"q  c #745B1D",
"w  c #664F1C",
"e  c #584825",
"r  c #44413D",
"t  c #4C433C",
"y  c #4B4336",
"u  c #564838",
"i  c #534931",
"p  c #695427",
"a  c #765C24",
"s  c #6D5431",
"d  c #7D6326",
"f  c #7E6939",
"g  c #3C3D41",
"h  c #3D4245",
"j  c #4B4643",
"k  c #4D4945",
"l  c #484747",
"z  c #534B44",
"x  c #554E4A",
"c  c #584D47",
"v  c #5B524D",
"b  c #59534A",
"n  c #4A4D56",
"m  c #5D5552",
"M  c #585757",
"N  c #4E5154",
"B  c #67574A",
"V  c #605751",
"C  c #635A54",
"Z  c #655D59",
"A  c #685F5A",
"S  c #6C5D53",
"D  c #715548",
"F  c #746648",
"G  c #6C625D",
"H  c #68635D",
"J  c #75675A",
"K  c #7E7256",
"L  c #6C6149",
"P  c #5A5E65",
"I  c #5C616C",
"U  c #6E6561",
"Y  c #666669",
"T  c #716662",
"R  c #746A65",
"E  c #766D69",
"W  c #796E6A",
"Q  c #7A6A63",
"!  c #7D736C",
"~  c #777169",
"^  c #696B75",
"/  c #7C7573",
"(  c #7A7677",
")  c #6A7379",
"_  c #655661",
"`  c #87681D",
"'  c #9C7A1B",
"]  c #A27D19",
"[  c #945133",
"{  c #846826",
"}  c #997926",
"|  c #977A37",
" . c #8B7033",
".. c #A27E25",
"X. c #875A49",
"o. c #88764B",
"O. c #887855",
"+. c #896D59",
"@. c #85766A",
"#. c #857975",
"$. c #857C7A",
"%. c #8A7E7B",
"&. c #857974",
"*. c #887068",
"=. c #A57B6B",
"-. c #A76045",
";. c #AA861B",
":. c #B28D1E",
">. c #B6911F",
",. c #A98627",
"<. c #B48D28",
"1. c #B69124",
"2. c #BA9325",
"3. c #BC952B",
"4. c #BB962A",
"5. c #A78936",
"6. c #B28E34",
"7. c #B59134",
"8. c #BB9535",
"9. c #B5943B",
"0. c #BA963B",
"q. c #BC9A3B",
"w. c #BF9934",
"e. c #AC903E",
"r. c #9B823A",
"t. c #C2992A",
"y. c #C29B34",
"u. c #C19C3B",
"i. c #C5A13C",
"p. c #C5A135",
"a. c #C9A228",
"s. c #C09A1F",
"d. c #98875A",
"f. c #948154",
"g. c #A78C43",
"h. c #AC9346",
"j. c #B49642",
"k. c #B59C4B",
"l. c #B79946",
"z. c #A58E5B",
"x. c #AC9357",
"c. c #B49C57",
"v. c #BCA359",
"b. c #BFA14D",
"n. c #998A68",
"m. c #8D827D",
"M. c #87807F",
"N. c #97897C",
"B. c #9A8E6C",
"V. c #AA9669",
"C. c #A99979",
"Z. c #AC966A",
"A. c #B9A365",
"S. c #AFA17C",
"D. c #B4A376",
"F. c #B3A37B",
"G. c #BBAB7C",
"H. c #B9A879",
"J. c #C29E43",
"K. c #C6A345",
"L. c #C6A958",
"P. c #CEAE52",
"I. c #C4AD6A",
"U. c #CBB679",
"Y. c #D3B978",
"T. c #C9B26B",
"R. c #DAC27C",
"E. c #767986",
"W. c #777D92",
"Q. c #8A7F80",
"!. c #7A8297",
"~. c #7B8CB0",
"^. c #8D8482",
"/. c #85858B",
"(. c #928683",
"). c #958986",
"_. c #9B8D84",
"`. c #958C8A",
"'. c #998E8A",
"]. c #9C918D",
"[. c #9C9087",
"{. c #9D9392",
"}. c #9A9596",
"|. c #909099",
" X c #A59786",
".X c #A19693",
"XX c #A49995",
"oX c #AB9D94",
"OX c #A69C99",
"+X c #A99E9C",
"@X c #A78B89",
"#X c #B7A884",
"$X c #ACA19D",
"%X c #AEA093",
"&X c #B7A699",
"*X c #B5A885",
"=X c #9FA0A4",
"-X c #ACA3A1",
";X c #AFA6AD",
":X c #B1A6A3",
">X c #B4A9A5",
",X c #B5ABAA",
"<X c #B8AEAC",
"1X c #B6AAA8",
"2X c #BCB1AC",
"3X c #BDB3B3",
"4X c #B1AEB5",
"5X c #A69EA3",
"6X c #C9B689",
"7X c #C9B896",
"8X c #C5B193",
"9X c #CAB7AA",
"0X c #C6BDBB",
"qX c #C9BFBD",
"wX c #C3B8B5",
"eX c #CDB9AE",
"rX c #D7C48E",
"tX c #D5C6A7",
"yX c #CAC1BE",
"uX c #D6C3B6",
"iX c #CFC0A5",
"pX c #E5D4B4",
"aX c #C9BEC2",
"sX c #CDC3C2",
"dX c #D1C7C5",
"fX c #D1C8C6",
"gX c #D5CBCA",
"hX c #D9CECD",
"jX c #DACDC0",
"kX c #DAD0CF",
"lX c #DDD2C7",
"zX c #DDD3D2",
"xX c #DBD4D7",
"cX c #D3CBD4",
"vX c #E0D6D5",
"bX c #E2D8D7",
"nX c #E5DCDA",
"mX c #E7DDDD",
"MX c #E9D5C4",
"NX c #E9E0DE",
"BX c #F3E4CC",
"VX c #ECE3E2",
"CX c #ECE5E7",
"ZX c #F1E8E8",
"AX c #E7DEE0",
/* pixels */
"A A A H U G U T T T R R E R E x z z x x x v m v V C A U T E W / $.Q.).'.}.+X:X<X3X0XsXfXhXbX1X%X&X%X&X*.m v x j x _ V C M ^.E +X",
"A A A G A U U T T R R R R E R c z z x x x v v v V Z Z A U R W ( #.Q.(.'..X5X:X,XwXwXyXfXhXxX1X&X8X&X&X&.m v x j j m m m C Q.~ -X",
"A A G G J U T T T R R R E R R v z z c x c b v m m m Z A U U R / / $.Q.`.{.OX-X,X3XwXqXdXhXxX1X1X&X&X8X#.v x x j k _ m m m m./ -X",
"A A A G G U T T R R R E E E E c k z z x x x v v m m Z A U U R / #.$.^.).{.XX-X>X<XwXqXdXgXzX9X8X9X9X9X#.v x z r k m v m Z m./ -X",
"A A A A T G G J J T J Q R R R v z c z z j x v v m V m A H G R E ! $.(.).'.XX+X>X<XwXwXsXgXcX9X9X9X9X9X#.c c k r l v v M M m.( :X",
"A A A R U E.W.W.!.!.!.W.E.Q.( v t z z b ! A m v m V Z H G E E ~ $./ / ^.'..XXX:X,XwX0XsXgXhXwXeX9XeX9X&.x x P r j M v v A m.M.$X",
"m C C ) W.~.~.~.~.~.~.!.W.W.( V z z z #.H B A m m m P Y M M P H ^ Y l P ( ].$X-X,X2XwXaXfXhX0XeXeXeXeX&.c c E.l j m v v H m.m.-X",
"V C Z A A T U T T T J T Q Q E m t z V $.@ t H M x r j x l l l l l N x M P P ^.$X1X3XwXaXdXgXcXhXeXuXeX*.k z l g l v b b M (.`.$X",
"B C Z Z G G U T T R R R E E ~ m c c R R + t r r j < 6 6 5 u i i u t r j N N N ~ }.2XwX0XsXcXaXuXqXeX9X#.z z ^ n r v c x _ `.{.+X",
"m V Z H H H U T T T R R E R E C b x #.m ; t : y y p { } ,.<.3.7.6.5.| s u l N x ^ E.<XyXdXfXdXuXuXeXeX#.j k j g j x c n Z `.{.+X",
"m V C H G G U T R R R R E E ~ A b b m.M k r y { ,.2.t.t.1.<.t.y.y.p.q.q.g.o.t j x I Y ^.<XcXuXuXuXuXeXW 7 z P l t x x x A ].`.`.",
"B V C H G T T T U T R T R R E A c C T t : p ;.4.t.t.} a a ..4.4.3.7.| | g.h.d.f t x N < ^ 4XuXuXuXuXeXW 7 z n g r z k j k _ l g ",
"m V H H H G G J T T R T R R E V b b k : w 2.2.t.;.q a ,.t.4.4.4.4.8.y.i.i.P.6XpXn.< j l P !.uXjXMXMXeXU g 7 , 2 , 2 2 , , 2 , g ",
"V C C C G G G T T T R R R E T v x t 1 e 1.2.t...q ,.a.1.' <.t.2.1.3.w.6.| g.Y.BXBXL j b x ) $X%X=.*.x 2 % % % % 2 2 2 2 , < < g ",
"V V C H G G G G T T R T R W G b b t - ` t.2.3.,.3.3.w @ - @ ` 2.<.3.,.> & = b #XpXD.i z k N ) < X O # # % # $ % 2 % 2 , , , < , ",
"b V V C G G G G G T T T T R C c b 1 8 3.2.t.t.t.y.0 o y u   O ..3.t.a % H @ N ( 7XiXF 6 x l P Y % = % $ $ # % $ % % 2 2 , < , g ",
"m V m Z Z A U U U U T T R T v c c = a 3.3.y.J.P.g.8 c B S y z d s.>.{ O > P N n *XtXA.> y N P Y = = & & # # # % % % % 2 , 1 , g ",
"x b v m V C Z Z Z Z A A U A b c C 7 } 4.2.y.L.Y.Z.%.N.Q b @ * q 4.>.r.# 1 M P P =XtXrXb $ M I P 2 $ % $ # # % # # 2 = 2 , , 2 j ",
"C Z A H U T T R R R R Q E Z z c R z ,.2.<.t.u.L.L.+.Q J B   + ' 1.7.5.i M 1 P !.N.tXtXK + r N ) = & $ # # % % % 2 # 2 2 , , , v ",
"k z z x x x v v m v x c m v b v ~ u ;.1.2.<.t.7.J.| u 5 : + q 2.:.,.1.e.p p b K D.7XtXf.% r M Y 2 % & # # % # # % 2 % 2 , , , U ",
"& 2 5 & = 6 7 1 = 7 B c & V @.B M 8 ;.>.1.2.2.3.3.3.5.{ q ;.>.<.:.:.5.4.4.e.k.k.c.A.U.f.< H N r $ = $ # # $ # % % % % = , , g #.",
"X 7 X.t 7 D J j 6 D +.S : @.&.G H 5 ..>.:.1.2.<.1.2.1.1.2.<.;.;.:.5.:.5.e.e.h.h.k.k.L.K l !.1 + $ & $ # # % % # % % % 2 2 2 j Q.",
". - c 8 * 7 D c 8 B D 8 j X.D ~ ~ : ` >.:.:.:.:.:.>.>.>.>.:.;.:.,.;.5.e.e.q.e.e.k.k.P.L h }.1 $ = = & # % # # % % % = 2 2 , V `.",
"3 8 S D 5 5 D D c J *.7 u [ D #.(.Y p ;.;.;.:.:.:.` ` q q w w 0 q p K f.f  .r.e.k.k.L.b M '.1 ; : : = $ # % # % % 2 2 2 2 , T ).",
"3 8 7 7 7 7 D *.*.S J D [ &.B (.&X XB ' ;.;.;.;.;.0 @ q } 0 } p w d r.f.> p i r.j.v.A.P ~ `.1 $ % % % # # % % % % 2 % , 2 < / (.",
"- * 5 6 u S J *.*.*.*.-.S j S ).G B V f ;.;.;.;.;.;.` q 0 { 5.a e d <.r.e w  .5.j.T.K ) H }.r + % # $ $ % % % 2 % 2 2 2 , l $.m.",
"@ + * t 8 7 c D *.&.[ X.j 6 ! ! 5 7 C @.} ' ' ;.;.] ;.;.` q 0 e d 5 p e d 5.5.e.A.G.H H H  Xl ; % = % $ % % % % 2 2 , ; , v ^.^.",
"& & & * @ & O & / 8 [ c 6 t m.S @ y y A @.| ' ' ' ' ] ] ,.,.} } } } r.;.5.5.h.v.G.! H H J }.< $ % = % % % % 2 2 , , , , < H ^.^.",
"X X X X X O X m A 4 X.< 6 z ).u @ 3 > + : B ` ' ' ' ' } ' } } ,.;.,.;.r.5.e.k.z.~ H H J K }.< $ % % % 2 ; , , , , , , , g E ^.( ",
"O O O . O O O W 8 [ r 7 7 V ).* > v   O   B } ` ` ' } ,.} } ' ' { ,.r.,.r.h.d n.S.~ ~ ~ ~ XX< % = = ; 2 , , , 1 , < < 1 l / M.( ",
"O X X   X o # E 4 3 5 7 7 R %.: Z XXm W @.,.a.5.p p 0 w d d ` ` d d p L ~ f K A.rXS./ ~ @.=XM x k r < , , , , , , , , < M M.$./ ",
"O X X O # % v *.[ R t 7 u W <XaXwX.X&.@Xj.s.4.p.;.i 5 i > @ + + + % i H N F rXe.h.U.S.$.m.$X}.`.`./.^.M.( ( Y Y M M N l M ( / Y ",
"T W #.Q.Q.'.}.=.=./.t t z m.;X5X#./ ). .;.a.q.4.1.z.f f.A.V.z.z.V.D.B.L M.*XrXc.r.A.U.*X!.0XnXlXfXyXyXyXyXyXyXyXjXgXfXsXyX0X-X|.",
"%.%.%.%.Q.Q.|.=.+.^ t t b ).@.@..XxX8X,.L.b.i.t.r.F.D.F f D.G.H.G.f.L B.2X*XT.T.e.k.G.6XiXNXZXVXVXNXnXnXbXbXbXvXzXnXnXNXNXZXZXVX",
"&.&.#.%.Q.Q.}.=.*.I z j S `.^ ^ T m.8.P.Y.u.i.1.z.*XH.G.K L z.D.K L C.~ N =X6XT.h.k.v.U.7X>XyXlXNXNXNXNXNXNXNXNXNXNXnXnXNXNXNXVX",
"&.&.#.#.#.%.`.*.Q I ^ m J &.G m.$.f.p.L.K.w.q.,.D.G.H.H.G.d.L b K S.*XY ) !.:XR.k.h.k.v.6X>X=X].wXNXNXNXVXVXCXNXNXNXNXNXNXVXCXVX",
"&.#.#.#.&.#.W Q *.Q.Q.Q.*.$.= R '.9.i.y.4.p.2.e.G.G.G.U.H.f.F L K C.6XJ M !.=XrXv.e.k.k.T.pXCXkXxXCXCXCXCXVXNXNXNXNXNXNXNXCXVXCX",
"&.&.#.#.&.).#.&.*.Q.@X'.@.&.T 7 K J.L.t.4.p.1.x.*X#X6XF.K o.Z.F.n.H B.~ P I !.rXT.k.e.j.A.tXCXCXCXVXNXNXNXNXNXNXNXNXNXVXNXVXVXZX",
"&.%.#.Q.Q..X:X$X+X.X].].'.'.`.#.o.K.u.J.K.t.1.V.G.iXC.L B.G.G.F.G.C.K b M ) E.F.T.v.5.h.A.rXCXVXNXNXVXVXNXNXNXNXNXNXNXNXVXNXVXZX",
"%.(.Q.Q.(.Q.).'.'.`.'.).`.'.`.Q.z.P.u.t.L.p.1.H.#XK ~ *X#XF.G.G.F.F.*XO.r P E.B.P.v.r.k.c.rXCXNXVXVXNXNXNXNXNXNXNXNXNXNXNXVXVXVX",
"*.N.(.(.).`.`.'.`.@X|.).`.'.].{.z.y.P.t.u.t.8.Z.L o.9XtX#X#XF.G.F.F.*X*XC h H C.L.v.e.k.c.iXCXNXNXNXNXNXNXNXNXNXNXNXNXNXNXNXNXVX",
"*.%.).)._.'.'.].`.{.{.`.`.'.{.`.@X6.t.y.J.t.6.D O.iXiX7X6XG.G.H.G.*X*X*XS.M.K ~ T.T.g.h.c.lXNXNXNXbXNXNXnXnXnXnXnXnXbXNXNXNXNXVX",
"@.%.).).`.`.].].{.{.{.`.'.].{.{.}.B.t.s.t.3.s F 6X#X&X6XG.G.F.G.F.F.*X*X*X*XS.~ @.T.g.h.7XVXnXnXbXNXNXbXxXbXnXbXxXNXbXNXbXNXNXNX",
"Q %.(.'.'.`.].].{.{.{.{.'.].{.}.].|.=.:.2.s a g.H.G.G.G.H.H.F.F.F.S.S.*X*XS.*XB.K B.k.2XnXbXbXbXxXzXzXbXbXxXzXzXzXzXzXbXxXbXbXNX",
"S %.%.'.'.`.{.{.].].{.].{.{.}.@X{.{.{.V.o.p <.,.n.G.D.D.D.D.D.F.F.F.S.F.S.S. Xd.v.@.yXNXnXbXbXvXzXzXzXzXkXkXkXkXzXzXzXzXzXbXbXbX",
"c %.%.{.{.{.{.{..X.X{.{.{.{.{..X.X.X{.5X+.a 8.7.| C.G.D.D.D.D.D.F.S.S.S.S.*Xd.k.D.*XbXnXbXbXvXzXzXzXzXzXhXhXkXhXhXhXkXlXzXzXzXzX",
"t %.&.'.{.{.{..X.XXXXX.X.XOXoXXX5XXXOX+X'._.h.6.6. .B.H.H.D.D.C.S.S.S.S.C.d.d.A.6XxXnXbXzXbXxXxXkXkXlXhXhXhXgXgXgXhXkXhXhXhXlXkX",
"6 %.%.Q.{.{..X{..XOXOXOXOX5X5X+X5X5X5X-X:X;XZ.j.6.6.| o.B.C.D.F.F.S.S.n.O.h.v.D.jXnXxXxXbXlXxXlXkXkXgXhXgXgXgXgXgXgXgXgXgXhXhXkX",
"& $.$.Q.].'.{.{.{..XOXOX$X-XOX-X$X5X$X-X$X5XA.j.| ..j.5.| o.o.O.o.f.f.r.h.v.A.8XbXbXbXkXbXzXzXzXkXhXhXhXgXfXgXgXfXgXdXgXgXgXgXhX",
"O *.&.#.'.].{.{.].{.XXOXOXOXOX$X$X$X5X-X;X;XZ.7.u.6.r.[ | 5.5.r.r.5.<.e.e.h.c.rXbXbXbXbXbXzXzXzXkXhXhXgXcXfXfXfXfXfXcXfXgXgXgXgX",
"X R Q.#.).].].{.{.]..XXX$X$X-X-X:X;X;X<X1X3X#X8.8.p.{ 9 4 } 6.6.6.7.9.j.l.k.v.6XgXlXbXbXzXkXkXkXhXhXgXgXfXfXfXfXfXfXfXfXfXgXgXgX",
"o A %.#.m.].'.]..X.XXXXX$X-X;X,X,X<X<X<X<XwX#Xy.w.y.q 9 { 9.7.y.i.p.q.q.k.k.v.rXdXsXgXzXbXzXzXzXkXhXgXgXfXfXfXfXfXfXfXfXfXfXgXfX",
"o m Q.%.&.].@X.XXXOXOX$X$X>X<X,X,X1X<X<X;XwX#Xy.q.p.,.a 5.l.9.i.b.q.p.q.l.k.v.R.tXsXyXfXkXzXzXkXkXhXhXgXgXgXfXfXfXfXdXdXfXfXfXfX",
"o k Q.&.&.'..XXXoXOXoXOX$X$X:X-X:X:X:X:X1X5XL.y.u.y.u.p.u.0.0.i.i.q.q.j.l.k.L.Y.rXdXuXyXfXlXzXzXkXhXhXgXfXfXfXfXfXdXdXdXfXdXfXfX",
"o 6 Q.&.#.Q.XX.XXXOXXXXXOXXXOXOXOXoXoXXX@X@Xj.u.u.y.u.8.0.8.6.u.p.p.w.j.l.k.L.Y.rXyXdXsXyXhXkXzXxXkXhXgXgXfXfXfXfXfXdXdXfXfXfXyX",
"o : Q.%.#.%..X.X.X.X.X{..X{. X].'.'.@X_.@Xx.y.J.K.u.u.8.0.8.7.u.i.b.q.0.0.k.A.Y.R.tXdXyXdXhXkXzXkXhXhXgXfXfXfXsXfXyXdXfXyXyXfXfX",
"o & @.#.&.W '..X[.].[.'.].'._._._.(._.N._.k.u.6.u.J.u.y.u.0.0.u.b.b.q.0.l.b.T.U.Y.iXyXyXfXgXhXkXkXgXcXfXfXfXsXsXyXfXsXsXsXsXsXsX",
"  O A R W C #..X'.'._.'.'.'.'.[.[._.N.N._.c.u.J.J.y.6.6.6.j.j.J.q.y.0.l.J.K.L.I.U.uXyXyXfXgXhXlXhXgXfXfXfXsXsXsXyXyXsXyXsXsXsXsX",
"    V T T V T .X'.'.'.'.'.'.'.'.[.[._.N.N.Z.j.J.A.u.u.0.j.l.0.u.l.L.k.9.j.k.c.v.2XyXsXfXfXgXgXhXgXgXfXfXsXsXsXsXyXsXsXsXyXsXsXsX",
"X . v T J V x ].'.[.].].[.].].[.[.[.@X_._.C.Z.u.J.y.6.y.6.6.| g.i.q.j.k.D.%XC.*XyXsXsXsXdXfXgXfXfXfXfXsXsXsXsXyXyXyXyXyXyXyXsXsX",
"O O z T U Z 6 (.{.'.].'.].].[.].'.]..X[..X@X@XC.=.x.x.x.V.V.C.C.Z.V.z.z. X X&XsXsXsXsXsXsXsXsXfXfXdXdXsXsXsX0XaX0XyX0XsX0XsX0XsX",
"O O 7 T G J : E XX'.].].].].].].{.{.]..X.XXX@XoXoXoXoX+XoXoXoXoX%XoXoX$X>XwXdXsXsXsXsX0XsXfXsXsXdXsXsXsXsX0X0X0X0XyX0X0X0XsXsX0X",
"O O = V V A = z .X[.].].].].{.{.{..X{..X.X.XXXXXoXoXoX$X:X>X1X<X9XwX0X0XaXdXaXaXsX0XsXsXsXsXsXsXsXsXsXyX0X0X0X0X0X0X0X0X0X0X0X0X",
"O O + c b V > $ ).{.'.].{.{.{.{.{.{..X.X.X.XXXXXoXoX$X1X1X1X<XwXwX0XyXqXqXqXqXaX0X0X0X0X0XsXsXsXyXsXyXyX0X0X0X0X0X0X0X0X0XsX0X0X"
};
