/* XPM */
static char *result[] = {
/* columns rows colors chars-per-pixel */
"64 64 233 2 ",
"   c #010101",
".  c #0A0405",
"X  c #060509",
"o  c #0B0609",
"O  c #0D0B0C",
"+  c #07080C",
"@  c #130C0D",
"#  c #150A0A",
"$  c #0D0E11",
"%  c #030A18",
"&  c #130E11",
"*  c #0E131E",
"=  c #151113",
"-  c #1B1313",
";  c #18171B",
":  c #1E110E",
">  c #231918",
",  c #30211C",
"<  c #0C1527",
"1  c #1A1C24",
"2  c #1C1C2A",
"3  c #141928",
"4  c #141D31",
"5  c #181F32",
"6  c #0C1E33",
"7  c #261E28",
"8  c #381E25",
"9  c #1C2333",
"0  c #1A263A",
"q  c #1D2229",
"w  c #37272D",
"e  c #232432",
"r  c #232A3B",
"t  c #282937",
"y  c #362B35",
"u  c #39333B",
"i  c #282932",
"p  c #473338",
"a  c #563A39",
"s  c #4D2C2B",
"d  c #733B2D",
"f  c #65423C",
"g  c #73473A",
"h  c #5C403E",
"j  c #1F2C42",
"k  c #242E43",
"l  c #2B3244",
"z  c #293449",
"x  c #343847",
"c  c #2D3B53",
"v  c #273C57",
"b  c #333E53",
"n  c #473A43",
"m  c #2E425A",
"M  c #34435B",
"N  c #384458",
"B  c #3F404D",
"V  c #3C4C62",
"C  c #364A64",
"Z  c #3C536B",
"A  c #36506E",
"S  c #484A54",
"D  c #584A54",
"F  c #4E5056",
"G  c #55575A",
"H  c #4F4649",
"J  c #7D5248",
"K  c #675358",
"L  c #704E4B",
"P  c #424D63",
"I  c #47566A",
"U  c #5C5C64",
"Y  c #475C75",
"T  c #5A5F7B",
"R  c #5B6266",
"E  c #496279",
"W  c #53677D",
"Q  c #626466",
"!  c #65666A",
"~  c #686869",
"^  c #766769",
"/  c #6A6973",
"(  c #7C6B72",
")  c #7A7477",
"_  c #677375",
"`  c #893825",
"'  c #864437",
"]  c #974C33",
"[  c #9A5439",
"{  c #934A2E",
"}  c #AD5333",
"|  c #B8613E",
" . c #C75D33",
".. c #CB673A",
"X. c #D86838",
"o. c #F27539",
"O. c #885647",
"+. c #895447",
"@. c #AF5A42",
"#. c #926655",
"$. c #A7654E",
"%. c #BA6B47",
"&. c #AB6953",
"*. c #B87559",
"=. c #B96D5B",
"-. c #89797A",
";. c #857779",
":. c #9C7A7A",
">. c #8E6F67",
",. c #A6786C",
"<. c #D76C45",
"1. c #CA7349",
"2. c #CA714E",
"3. c #EF7648",
"4. c #CB7E77",
"5. c #99827B",
"6. c #B08672",
"7. c #DD8352",
"8. c #EB8A56",
"9. c #D9877C",
"0. c #CD8D70",
"q. c #E38C7C",
"w. c #E7967B",
"e. c #E18461",
"r. c #DAA279",
"t. c #F6A875",
"y. c #4A6888",
"u. c #576E88",
"i. c #55718A",
"p. c #577799",
"a. c #6C759D",
"s. c #687998",
"d. c #73759A",
"f. c #73799E",
"g. c #7C799E",
"h. c #7B7499",
"j. c #6F708D",
"k. c #767CA3",
"l. c #6E79A2",
"z. c #867899",
"x. c #907D82",
"c. c #A87C85",
"v. c #B47E86",
"b. c #807EA1",
"n. c #778484",
"m. c #72878F",
"M. c #5B8FAE",
"N. c #7C84A8",
"B. c #7193AD",
"V. c #6794A7",
"C. c #838384",
"Z. c #85888C",
"A. c #8B8E93",
"S. c #868492",
"D. c #8D9196",
"F. c #899897",
"G. c #92959B",
"H. c #95989B",
"J. c #978F97",
"K. c #B8858A",
"L. c #AA8898",
"P. c #B68C96",
"I. c #BA949D",
"U. c #AB9090",
"Y. c #A7A192",
"T. c #8A8BAA",
"R. c #8585A7",
"E. c #968AA4",
"W. c #9997A7",
"Q. c #868BB3",
"!. c #899AB7",
"~. c #989BB5",
"^. c #8F90B0",
"/. c #AA8EA2",
"(. c #A798AB",
"). c #B698A6",
"_. c #A69DB1",
"`. c #9CA1A6",
"'. c #9EA3A9",
"]. c #9AA2B9",
"[. c #89A2B5",
"{. c #A1A6AC",
"}. c #A4A9AF",
"|. c #A7A6AA",
" X c #B6A0AD",
".X c #A6ABB1",
"XX c #AAAEB4",
"oX c #A7A3B6",
"OX c #B5A5B5",
"+X c #ADB1B6",
"@X c #AEB3B9",
"#X c #B2B5BA",
"$X c #B6B9BE",
"%X c #BEBEBF",
"&X c #BEB1B9",
"*X c #87A98D",
"=X c #C98887",
"-X c #D68B83",
";X c #DA968D",
":X c #C48D93",
">X c #C99797",
",X c #D89B96",
"<X c #D08F90",
"1X c #E18F81",
"2X c #E2958A",
"3X c #E79585",
"4X c #D5A398",
"5X c #C5A4AB",
"6X c #D6A6A6",
"7X c #C6ABB6",
"8X c #E0A899",
"9X c #8CA5C1",
"0X c #BABDC2",
"qX c #B6BBC2",
"wX c #BEC1C6",
"eX c #C2C6CB",
"rX c #C6C9CE",
"tX c #C6C8CA",
"yX c #C9CDD1",
"uX c #CED1D5",
"iX c #D1D3D6",
"pX c #D2D6D9",
"aX c #D6DADC",
"sX c #D9DCDE",
"dX c #DADEE0",
"fX c #DEE1E3",
"gX c #E2E4E5",
"hX c #E9E9EA",
"jX c #E5E7EA",
"kX c #EBEEF1",
"lX c #ECF0F1",
"zX c #FFFFFF",
"xX c #F2F3F4",
/* pixels */
"zXzXzXzXzXzXzXzXzXzXzXzXzXzXzXzXzXzXzXzXzXzXzXzXzXzXzXzXzXzXzXzXzXzXzXzXzXzXzXzXzXzXzXzXzXzXzXzXzXzXzXzXzXzXzXzXzXzXzXzXzXzXzXzX",
"zXzXzXzXzXzXzXzXzXzXzXzXzXzXzXzXzXzXzXzXzXzXzXzXzXzXzXzXzXzXzXzXzXzXzXzXzXzXzXzXzXzXzXzXzXzXzXzXzXzXzXzXzXzXzXzXzXzXzXzXzXzXzXzX",
"zXzXzXzXzXzXzXzXzXzXzXzXzXzXzXzXzXzXzXzXzXzXzXzXzXzXzXzXzXzXzXzXzXzXzXzXzXzXzXzXzXzXzXzXzXzXzXzXzXzXzXzXzXzXzXzXzXzXzXzXzXzXzXzX",
"zXzXzXzXzXzXzXzXzXzXzXzXzXzXzXzXzXzXzXzXzXzXzXzXzXzXzXzXzXzXzXzXzXzXzXzXzXzXzXzXzXzXzXzXzXzXzXzXzXzXzXzXzXzXzXzXzXzXzXzXzXzXzXzX",
"zXzXzXzXzXzXzXzXzXzXzXzXzXzXzXzXzXzXzXzXzXzXzXzXzXzXzXzXzXzXzXzXzXzXzXzXzXzXzXzXzXzXzXzXzXzXzXzXzXzXzXzXzXzXzXzXzXzXzXzXzXzXzXzX",
"zXzXzXzXzXzXzXzXzXzXzXzXzXzXzXzXzXzXzXzXzXzXzXzXzXzXzXzXzXzXzXzXzXzXzXzXzXzXzXzXzXzXzXzXzXzXzXzXzXzXzXzXzXzXzXzXzXzXzXzXzXzXzXzX",
"zXzXzXzXzXzXzXxXxXzXzXzXxXzXzXzXxXzXzXzXxXzXzXzXzXzXzXxXzXzXxXzXxXzXzXzXxXzXzXzXxXzXzXzXzXxXzXzXzXzXzXxXzXzXxXzXzXzXzXzXzXzXzXzX",
"zXzXzXzXzXzXzXzXzXzXzXzXzXzXzXzXzXzXzXzXzXzXzXzXzXzXzXzXzXzXzXzXzXzXzXzXzXzXzXzXzXzXzXzXzXzXzXzXzXzXzXzXzXzXzXzXzXzXzXzXzXzXzXzX",
"zXzXzXzXiXZ.C.C.C.C.C.C.C.C.C.C.C.C.C.C.C.C.C.C.C.C.C.C.C.C.C.C.C.C.C.C.C.C.C.C.C.C.C.C.C.C.C.C.C.C.C.C.C.C.C.C.) C.H.gXzXzXzXzX",
"zXzXzXhX-                                                                                                             u zXzXzXzX",
"zXzXzXeX  o                                                                   .               X                   X   O hXzXzXzX",
"zXxXzX%X    w ^ K ^ ^ ^ ^ ^ ^ ^ ;.;.;.x.;.( ) ;.) ) ) ) ) ) ) x.;.;.;.-.-.-.-.-.-.-.-.-.;.) x.x.) ) / ! ! ! _ ! _ ;   $ hXzXzXzX",
"zXzXzX%X    a =X,.K.=X=X=X9.-X-X-X-X<X-X=X=XP.v.L.L.L.L.L.P./.(.I.I.I.5X>X,X,X6X4X6X6X6X5X5XOXOX(.(.(.W.E.T.T.T.~.q   $ hXzXzXzX",
"zXzXzX%X    a q.4.4.4.9.9.9.9.9.9.9.9.9.-X-X=X=XK.K.v.v.c.L.L.c./.L./.(.).(./.).).5X7XOXOXOXOXOX XOX_._._.~.~.T.T.1   $ gXzXzXzX",
"zXxXzX%X    a 3Xq.q.q.q.q.1Xw.-X1X1X1X3X2X2X;X<X:X:X:XP.L././././.(.(.(._._.(._. XOXOXoXqXOXOXOXOXOX_.oXoX~.].~.R.1   $ hXzXzXzX",
"zXzXzX%X    a 2X-X1X-X1Xw.w.w.3X3X3X3X3X3X2X<X:X:XP.P.L././././.E./.W.(._._.OX_.oXOXqX_._.oXoX].].9XoX9X9X].~.!.!.q   @ gXzXzXzX",
"zXzXzX%X    a 2X-X9.-X3X2Xw.3X3X3X2X;X,X,X4X6X5X5X5XL. X).).L./.z.E.E.E.^._._._.oX_.oXoX].].].~.].9XoX9X].~.[.[.9Xq   O hXzXzXzX",
"zXzXzXwX    H 8X;X;X2X2X8X3X3X3X3X,X>X6X6X6X5XU.:.J ' S.&X X).).(.(.E.^._._._./.E.W.].~._.(.~.~.~.~.~.~.W.T.Q.!.9Xq   $ hXzXzXzX",
"zXxXzXwX    a 8X,X;X;X,X2X;X4X4X6X4X=X,.K K +.{ ` ' <.a S.qX XOX X(.OXoX_.b.z.z.g.R.E.R.R.E.R.N.R.T.T.T.N.N.N.N.!.q   $ jXzXzXzX",
"zXzXzX7X    a 6X>X>X>X>X>X>X:XI.K.L w 7 t 7 s d a $.<.[ r A.oXoXoX_.(./.z.z.z.j.d.g.h.z.z.g.b.b.k.k.k.k.d.a.V.k.N.3   $ hXzXzXzX",
"zXzXzX%X    a 5XL.P.P.P.P./.L.9.@.8 e k 0 z e k r t h [ 7 u -.(.W.K.c.z.z.z.j.j.j.z.z.z.z.g.g.k.g.g.f.f.a.f.d.d.a.1   $ hXzXzXzX",
"zXzXzX%X    p K.c.c.v.c.L.c.J @.' p w n n P t l i x m g p H g ,.0...X.( k.h.j.z.h.h.g.g.g.k.g.g.f.f.f.f.a.a.a.a.a.1   $ hXzXzXzX",
"zXzXzX%X    p c.c.v.c.=XJ 8 ' <.s s p =.' v l k Y I l u n L $.w.=.n ] d c.c.z.b.z.k.h.g.h.h.h.d.d.f.f.f.f.a.a.a.a.*   O gXzXzXzX",
"zXzXzX%X    ; y p D b f 8 e #.@.n n #.3.} t N P W P P x l I ;.t.L t x +.8.8.#.k.k.b.z.h.h.d.h.k.f.l.f.d.s.l.l.s.a.1   O hXzXzXzX",
"zXzXzX%X    * q 3 0 I j q F N t p n =.<.3.a c T y.i.u.N l I / >.u n n 6.w.e.1.' ,.j.R.R.k.R.b.k.k.k.k.k.l.N.l.N.k.3   O hXzXzXzX",
"zXxXzX%X    * r e e V Z u W N r x U 2X3.<.<.a b y.-.J n x u.W x y i D 6.*.r.f g ..[ >.N.^.R.b.Q.^.Q.Q.T.N.N.R.R.R.2   $ hXzXzXzX",
"zXzXzX%X    % E V 3 I E m E i.N S I x.=.2.4.7.| &.8...X.1.K Z c 7 x ( @.r.t.a U &.7.[ z z.~.^.c.&.n W R._.(.J.^.Q.2   $ jXzXzXzX",
"zXzXzX7X    * i.N V I I V V m.Y j.u.A V F n ..<.g d ] o.] } O.[ s C u.U >.L w P #.8.+.5 x j.( } w r N N :.0.8X5.^.7   O hXzXzXzX",
"zXzXzX%X    $ Y i.Y Z m W I W Y a.y.S i > * , p x 7 a <.d } <.o.] m N c 0 < 2 l S K i e e 5 k D n e P T *.*.6.r.8.>   $ hXzXzXzX",
"zXxXzX%X    o 1 E y.y.v r I m.E u.t # = > > ; ; 7 e u | s } 2.o.d 3 0 k r q 9 N V v 5 4 z l z c u.n V ( t.<.| 0.7.,   O hXzXzXzX",
"zXzXzX%X    + X 3 Z i.m 6 z l 1 @ @ o - = ; > - = < w } s | 2.o.d % p u 4 0 9 V C M 5 k I 0 b c p.a.c x ^ :.6.x.u.;   O gXzXzXzX",
"zXzXzX%X    X & . = m m q q   O o o @ - O = - ; ; ; 9 w d ..1.X.{ w %.%.e < k Y A C 4 C M 4 y.k y.Y 2 l j m y.p.m +   O hXzXzXzX",
"zXzXzX%X  X X @ o # $ %   X O : . . O O   + O > = O 1 3 i y p a s s J %.%.y < A C 0 < C r m A c y.C 3 P P e z b l O   O hXzXzXzX",
"zXzXzX%X    X @ o o X   . X . o @ . @ # . O . = = X = ; l 9 9 < 3 ; 6 f 1.s u K m r 4 m 0 A 6 A E 0 5 C P z 0 2 x $   $ hXzXzXzX",
"zXzXzX%X    o o X X X   X . # . # . : = = : - @ & + + O q t q * 9 0 l z a p r *.O.9 r H C z C E 4 0 z c b l 5 2 l %   $ hXzXzXzX",
"zXxXzX%X    X o   X X     X o @ # . @ - . @ : + O o + = # ; 3 < q r z r O.O.B J [ a [  .x 0 y.v 4 5 5 b Y c 5 l e +   & hXzXzXzX",
"zXzXzX%X    o o o o @ X X .   . O O # - + + : = X o o & O - * 9 q 9 m u f f e c g $.7.X.{ x C 9 c < 4 V M c c l r $   $ hXzXzXzX",
"zXzXzX$X    O @ X     O X . o . . @ - : $ $ = = o o & & o - = 1 3 3 m i 9 9 9 F 6.1.%.|  .&.n i z 0 k 2 b M b x r $   O hXzXzXzX",
"zXzXzX%X    X & o o X .   . m.W.E n.5.M._ m.#.^ :.Y.Y.|.*XH.6.m.M.*XB.Y.C.n.B.].7X8X0.[.5.,.Y.[.7XC.z 3 Z M k P b $   O gXzXzXzX",
"zXzXzX%X    X X @ & X X +   C ! _ G G Z R _ f L R ) ) ) ^ ) R R _ _ _ n.^ _ W j.m.>.^ _ J [ >.n.5.#.s p x z < k N $   o hXzXzXzX",
"zXzXzX7X  X X     X X X   X                                     +         X             . .         . + +   +   X X   = hXzXzXzX",
"zXxXzX%X  X                                                                                                           o jXzXzXzX",
"zXzXzXiXH S F S S F S F F F F F F F F F F F G G G G G G G G G G R G R R R G R R R Q Q Q Q Q R ! Q ~ ! ! ~ Q Q ~ ! ~ Q _ xXzXzXzX",
"zXzXzXhX{.+XXXXX+X+X+X@X+X@X+X$X$XwX$XwXwXwXwXwXeXrXrXrXyXyXiXdXuXaXiXaXaXaXaXfXdXfXfXgXgXjXjXjXjXjXjXkXkXlXlXlXlXlXlXlXzXzXzXzX",
"zXzXzXjXH.`.`.`.'.'.'.'.{.{.{.}.}..XXXXXXXXX+X+X#X#X$X$XqX0X%Xn.~ wXwXeXrXrXrXrXyXyXuXuXuXuXuXpXpXaXaXaXaXaXsXsXsXsXaXsXzXzXzXzX",
"zXzXzXjX`.`.'.'.'.{.{.{.{..X.X.X.XXXXXXX@X#X#X#X$X$X$X0XqXyXC.  ; %XyXeXrXyXyXuXuXuXuXuXpXpXpXaXaXaXaXdXdXdXdXdXdXdXdXfXxXzXzXzX",
"zXzXzXfX`.'.'.'.{.{.{.{.{..X.X.XXXXXXX+X#X+X#X$X#X$X$X0XqXeX|.o = +XyXeXrXyXyXyXuXuXuXpXpXpXaXaXaXdXdXdXdXdXdXdXdXfXfXfXzXzXzXzX",
"zXzXzXkXH.`.`.`.W.'.{.'.'.{.{.}..X.XXXXXXX+X+X#X#X$X0X0X0XeXeX$X#XrXrXyXyXyXyXyXyXuXuXiXiXpXpXpXpXaXaXaXsXsXdXdXsXdXsXdXzXzXzXzX",
"zXzXzXzXyX.X+XXX+X+X+X+X+X#X#X#X#X$X$XqX0X0X$XwXeX0X+X#X#X#X#X%XwX0X0XwX0XeXuXpXpXpXaXaXaXsXsXdXfXfXfXfXfXfXgXfXgXfXgXxXzXzXzXzX",
"zXzXzXzXzXzXzXzXzXzXzXzXzXzXzXzXzXzXzXzXzXzXzXzXzXsXZ.Z.S.S.Z.A.A.A.D.D.D.G.xXzXzXzXzXzXzXzXzXzXzXzXzXzXzXzXzXzXzXzXzXzXzXzXzXzX",
"zXzXzXzXzXzXzXzXzXzXzXzXzXzXzXzXzXzXzXzXzXzXzXzXzXsX|.}.}..X.XXX.X.XXX+X+X+XxXzXzXzXzXzXzXzXzXzXzXzXzXzXzXzXzXzXzXzXzXzXzXzXzXzX",
"zXzXzXzXzXzXzXzXzXzXzXzXzXzXzXzXzXzXzXzXzXzXzXzXzXhXeXeXeXeXeXtXtXrXrXrXyXrXxXzXzXzXzXzXzXzXzXzXzXzXzXzXzXzXzXzXzXzXzXzXzXzXzXzX",
"zXzXzXzXzXzXzXzXzXzXzXzXzXzXzXzXzXzXzXzXzXzXzXzXzXhXdXgXdXfXfXfXgXfXgXfXhXdXxXzXzXzXzXzXzXzXzXzXzXzXzXzXzXzXzXzXzXzXzXzXzXzXzXzX",
"zXzXzXzXzXzXzXzXzXzXzXzXzXzXzXzXzXzXzXzXzXzXzXzXzXhXgXhXhXhXkXlXxXxXxXhXhXhXxXzXzXzXzXzXzXzXzXzXzXzXzXzXzXzXzXzXzXzXzXzXzXzXzXzX",
"zXzXzXzXzXzXzXzXzXzXzXzXzXzXzXzXzXzXzXzXzXzXzXzXzX`.D.G.G.D.D.G.D.G.G.G.H.D.#XzXzXzXzXzXzXzXzXzXzXzXzXzXzXzXzXzXzXzXzXzXzXzXzXzX",
"zXzXzXzXzXzXzXzXzXzXzXzXzXzXzXzXzXzXzXzXzXzXzXzXxX`.A.A.A.A.A.A.D.A.A.D.A.A.}.zXzXzXzXzXzXzXzXzXzXzXzXzXzXzXzXzXzXzXzXzXzXzXzXzX",
"zXzXzXzXzXzXzXzXzXzXzXzXzXzXzXzXzXzXzXzXzXzXzXgXdXwX'.W.H.G.G.H.H.W.`.`.}.#XyXsXhXzXzXzXzXzXzXzXzXzXzXzXzXzXzXzXzXzXzXzXzXzXzXzX",
"zXzXzXzXzXzXzXzXzXzXzXzXzXzXzXzXzXzXzXzXzXzXhXuXdXaXiXyXyXtXrXrXrXyXyXyXiXaXsXsXpXxXzXzXzXzXzXzXzXzXzXzXzXzXzXzXzXzXzXzXzXzXzXzX",
"zXzXzXzXzXzXzXzXzXzXzXzXzXzXzXzXzXzXzXzXzXzXzXzXzXzXzXzXzXzXzXzXzXzXzXzXzXzXzXzXzXzXzXzXzXzXzXzXzXzXzXzXzXzXzXzXzXzXzXzXzXzXzXzX",
"zXzXzXzXzXzXzXzXzXzXzXzXzXzXzXzXzXzXzXzXzXzXzXzXzXzXzXzXzXzXzXzXzXzXzXzXzXzXzXzXzXzXzXzXzXzXzXzXzXzXzXzXzXzXzXzXzXzXzXzXzXzXzXzX",
"zXzXzXzXzXzXzXzXzXzXzXzXzXzXzXzXzXzXzXzXzXzXzXzXzXzXzXzXzXzXzXzXzXzXzXzXzXzXzXzXzXzXzXzXzXzXzXzXzXzXzXzXzXzXzXzXzXzXzXzXzXzXzXzX",
"zXzXzXzXzXzXzXzXzXzXzXzXzXzXzXzXzXzXzXzXzXzXzXzXzXzXzXzXzXzXzXzXzXzXzXzXzXzXzXzXzXzXzXzXzXzXzXzXzXzXzXzXzXzXzXzXzXzXzXzXzXzXzXzX",
"zXzXzXzXzXzXzXzXzXzXzXzXzXzXzXzXzXzXzXzXzXzXzXzXzXzXzXzXzXzXzXzXzXzXzXzXzXzXzXzXzXzXzXzXzXzXzXzXzXzXzXzXzXzXzXzXzXzXzXzXzXzXzXzX",
"zXzXzXzXzXzXzXzXzXzXzXzXzXzXzXzXzXzXzXzXzXzXzXzXzXzXzXzXzXzXzXzXzXzXzXzXzXzXzXzXzXzXzXzXzXzXzXzXzXzXzXzXzXzXzXzXzXzXzXzXzXzXzXzX"
};
